<?xml version="1.0" encoding="UTF-8"?>
<!DOCTYPE svg PUBLIC "-//W3C//DTD SVG 1.1//EN" "http://www.w3.org/Graphics/SVG/1.1/DTD/svg11.dtd">
<!-- Creator: CorelDRAW X7 -->
<svg xmlns="http://www.w3.org/2000/svg" xml:space="preserve" width="40mm" height="40mm" version="1.1" style="shape-rendering:geometricPrecision; text-rendering:geometricPrecision; image-rendering:optimizeQuality; fill-rule:evenodd; clip-rule:evenodd"
viewBox="0 0 4000 4000"
 xmlns:xlink="http://www.w3.org/1999/xlink">
 <defs>
  <style type="text/css">
   <![CDATA[
    .fil0 {fill:#F39314}
    .fil1 {fill:#5B5B5B;fill-rule:nonzero}
   ]]>
  </style>
 </defs>
 <g id="Слой_x0020_1">
  <metadata id="CorelCorpID_0Corel-Layer"/>
  <g id="_1911557577568">
   <path class="fil0" d="M1884 1971c0,179 -144,324 -323,324 -179,0 -324,-145 -324,-324 0,-179 145,-324 324,-324 179,0 323,145 323,324z"/>
   <g>
    <path class="fil1" d="M1492 1649c38,35 70,78 93,127l1 2 -3 2 -54 39 -4 3 -1 -4c-17,-40 -43,-76 -76,-106 -34,-31 -75,-56 -118,-73 -9,31 -14,64 -14,97 0,33 5,67 16,100 14,40 34,76 60,107 26,31 58,57 93,76 18,-60 51,-114 94,-159 43,-44 97,-79 160,-100 37,-12 75,-19 113,-20 39,-1 77,4 114,14 3,1 6,1 9,2 2,1 5,2 8,3l0 0 0 0 0 0 1 0 0 1 9 2 1 0 0 1 1 0 0 0 0 0 1 0 1 0 0 1 0 0 4 1 1 0 0 0 1 0 2 1 0 1 0 0 1 0 1 -1 1 1 0 1 1 0 2 0 0 0 0 0 1 1 0 0 0 0 0 0 1 0 0 0 1 0 1 1 0 0 1 -1 1 1 0 0 0 1 2 0 1 0 1 0 0 0 0 1 0 0 1 0 0 0 1 0 0 0 0 0 1 0 1 0 1 1 0 0 1 0 1 0 1 1 0 0 1 0 0 0 1 0 1 1 2 0 0 2 1 1 0 0 0 1c-2,12 -4,23 -6,35 -2,11 -5,22 -9,33l0 1 0 0 0 1 -1 1c-18,61 -51,116 -95,161 -43,45 -97,79 -160,100 -38,13 -76,19 -114,20 -38,1 -75,-4 -111,-13 -3,16 -4,33 -4,50 0,51 13,101 39,140 26,39 65,68 116,77 11,2 23,3 35,3 24,0 47,-4 69,-10 21,-6 42,-15 61,-28l6 -3 0 6 0 60 0 2 -2 1c-21,12 -43,22 -67,28 -24,6 -50,10 -77,10 -34,0 -65,-6 -93,-17 -29,-11 -54,-28 -76,-50l0 0c-34,-34 -58,-78 -71,-128 -12,-51 -15,-107 -6,-167 -48,-23 -91,-55 -126,-95 -35,-39 -62,-86 -79,-139 -14,-40 -20,-81 -20,-121 -1,-41 6,-82 18,-121l0 0c4,-13 8,-25 12,-36 5,-10 9,-20 14,-27l4 -7 1 6 1 0 0 0 1 0 1 0 1 0 0 0 1 0 0 0 1 1 0 0 1 0 1 0 0 0 0 0 1 0 0 0 1 0 1 0 0 0 1 0 2 1 0 0 0 0 1 0 0 0 1 1 0 0 0 0 1 0 1 0 0 0 1 0 1 0 0 0 1 0 1 1 0 0 0 0 1 0 1 0 1 0 2 1 0 0 0 0 1 0 1 0 0 1 0 0 0 0 1 0 1 0 0 0 1 0 2 1 0 0 1 0 0 0 1 0 2 1 1 0 0 0 1 0 0 0 1 1 0 0 0 0 0 0 1 0 0 0 0 0 1 0 1 0 0 1 1 0 0 0 1 0 0 0 1 1 1 0 1 0 0 0 1 1 0 0 1 0 1 0 0 0 1 0 0 0 1 1 0 0 1 0 1 0 1 1 0 0 2 0 0 1 1 0 0 0 1 0 1 0 0 0 1 1 0 0 0 0 1 1 0 0c50,17 96,45 135,80zm-153 -87l0 0 0 0zm1010 493c22,-23 48,-40 77,-52 29,-11 61,-17 96,-17 35,0 68,6 97,17 28,12 54,29 77,52 22,22 39,47 50,75 11,28 17,58 17,90 0,33 -6,63 -17,90 -11,28 -28,53 -50,75l0 0c-23,23 -49,40 -78,52 -29,11 -61,17 -96,17 -35,0 -67,-6 -96,-17 -29,-12 -54,-29 -77,-52l0 0c-23,-22 -39,-47 -51,-75 -11,-27 -17,-57 -17,-90 0,-65 23,-120 68,-165zm340 165c0,-24 -4,-46 -12,-66 -8,-20 -20,-38 -35,-54 -16,-16 -34,-28 -54,-36 -20,-8 -42,-12 -66,-12 -24,0 -46,4 -66,12 -20,8 -37,20 -53,36 -16,16 -28,34 -36,54 -7,20 -11,42 -11,66 0,47 15,87 47,120 16,16 33,28 53,36 20,8 42,12 66,12 24,0 46,-4 66,-12 20,-8 38,-20 54,-36 15,-17 27,-35 35,-55 8,-20 12,-41 12,-65zm-566 234c-34,0 -65,-6 -93,-17 -28,-11 -54,-28 -76,-50l0 0c-23,-22 -40,-48 -51,-76 -11,-28 -17,-58 -17,-92 0,-66 23,-122 69,-166 22,-22 47,-39 76,-50 28,-12 59,-17 93,-17 26,0 50,2 72,8 23,5 44,13 63,24l1 1 0 2 0 61 0 6 -5 -3c-19,-11 -39,-19 -59,-25 -21,-5 -41,-8 -63,-8 -25,0 -48,4 -68,12 -21,8 -39,20 -56,36l0 0c-16,15 -28,33 -36,53 -8,20 -13,42 -13,67 0,24 5,46 13,66 8,20 20,38 36,54l0 0c17,16 36,28 56,36 21,8 44,12 68,12 24,0 47,-4 69,-10 21,-6 42,-15 61,-28l6 -3 0 6 0 60 0 2 -2 1c-21,12 -43,22 -67,28 -24,6 -50,10 -77,10zm-248 -495c36,-38 62,-84 77,-134 -31,-8 -62,-13 -94,-12 -32,0 -64,5 -96,16 -53,17 -98,46 -133,84 -36,37 -63,84 -77,134 30,8 62,12 94,12 31,-1 64,-6 96,-16l0 0c52,-18 97,-47 133,-84z"/>
   </g>
  </g>
 </g>
</svg>
