<?xml version="1.0" encoding="UTF-8"?>
<!DOCTYPE svg PUBLIC "-//W3C//DTD SVG 1.1//EN" "http://www.w3.org/Graphics/SVG/1.1/DTD/svg11.dtd">
<!-- Creator: CorelDRAW X7 -->
<svg xmlns="http://www.w3.org/2000/svg" xml:space="preserve" width="40mm" height="40mm" version="1.1" style="shape-rendering:geometricPrecision; text-rendering:geometricPrecision; image-rendering:optimizeQuality; fill-rule:evenodd; clip-rule:evenodd"
viewBox="0 0 4000 4000"
 xmlns:xlink="http://www.w3.org/1999/xlink">
 <defs>
  <style type="text/css">
   <![CDATA[
    .fil1 {fill:#5B5B5B}
    .fil0 {fill:#F39314}
   ]]>
  </style>
 </defs>
 <g id="Слой_x0020_1">
  <metadata id="CorelCorpID_0Corel-Layer"/>
  <g id="_1913101860608">
   <path class="fil0" d="M2097 2094c0,178 -145,323 -324,323 -179,0 -324,-145 -324,-323 0,-179 145,-324 324,-324 179,0 324,145 324,324z"/>
   <path class="fil1" d="M1785 2019l-61 0 0 348 73 0 3 0 0 -17 0 -12 12 0 32 0 12 0 0 12 0 17c0,14 6,26 14,35 9,9 22,15 35,15l257 0c-8,-18 -11,-38 -8,-57 3,-21 13,-42 29,-58 -5,-4 -9,-9 -12,-14 -12,-17 -18,-37 -18,-57l0 0c0,-20 6,-40 18,-57 3,-6 7,-10 12,-15 -5,-4 -9,-9 -12,-14 -12,-17 -18,-37 -18,-58 0,-20 6,-40 18,-57 3,-5 7,-10 12,-14 -14,-13 -23,-29 -27,-46 -4,-16 -4,-33 -1,-48l-9 0 -32 0 -12 0 0 -13 0 -287 0 0c0,-2 -1,-11 -5,-21 -4,-11 -12,-24 -26,-31l0 0c-3,-1 -8,-2 -14,-3 -6,0 -13,-1 -19,-1 -2,23 -4,57 -7,90 -3,40 -7,78 -10,95l0 0c-5,24 -30,54 -56,80 -25,24 -51,45 -61,52 -12,11 -28,28 -40,43 -9,11 -17,21 -19,27l0 1c0,1 -6,18 -6,37 -1,17 4,37 22,48l11 6 -7 11 -16 27 -6 11 -11 -7c-15,-8 -26,-20 -33,-32 -7,-12 -12,-24 -14,-36zm374 -110l0 2c6,-17 16,-32 29,-44 17,-14 39,-23 64,-23l210 0c24,0 47,10 63,26l0 0c16,16 26,38 26,63l0 22c0,14 -4,28 -9,39 -4,8 -9,15 -15,22 24,25 24,54 24,76l0 7 0 0c0,14 -4,27 -9,39 -4,8 -9,15 -15,21 6,6 11,14 15,22 5,11 9,25 9,39l0 0 0 6c0,22 0,51 -24,76 24,26 24,55 24,77l0 6 0 0c0,25 -10,47 -26,63l0 0 0 0c-16,16 -39,26 -63,26l0 0 -121 0c-41,0 -64,0 -78,0 -18,0 -21,0 -24,-1l-1 0 -333 0c-29,0 -55,-12 -74,-31 -9,-9 -16,-19 -22,-30l0 11 -12 0 -73 0 0 56 0 12 -12 0 -234 0 -12 0 0 -12 0 -32 0 -13 12 0 190 0 0 -415 -60 0 -13 0 0 -12 0 -32 0 -13 13 0 60 0 0 -49 -190 0 -12 0 0 -12 0 -32 0 -12 12 0 234 0 12 0 0 12 0 93 61 0c1,-3 1,-6 2,-9 1,-6 3,-13 5,-18 12,-38 59,-80 102,-117 35,-32 68,-60 71,-78 4,-17 8,-63 11,-108 4,-48 7,-93 8,-111l1 -11 11 0 15 -1c6,0 29,0 50,2 13,1 25,4 34,8 31,15 47,40 55,61 8,21 9,40 9,41l0 1 0 287zm-220 240l15 -29 5 -11 11 6c7,4 15,5 23,5 10,0 19,-2 27,-7 8,-5 14,-12 19,-20l0 0c3,-7 5,-15 5,-23l0 -13 12 0 32 0 12 0 0 13c0,17 -4,34 -11,48 -9,18 -23,33 -40,43 -17,10 -36,16 -56,16 -16,0 -33,-4 -49,-12l-11 -6 6 -10zm523 -161c9,0 17,-4 23,-10l0 0c6,-6 9,-14 9,-23l0 -22c0,-9 -3,-17 -9,-23l0 0c-6,-6 -14,-9 -23,-9l-210 0c-12,0 -22,5 -30,12l0 0c-8,8 -13,19 -13,31l0 0c0,12 5,23 13,31 8,8 18,13 30,13l210 0zm0 56l-210 0c-12,0 -22,5 -30,13l0 0c-8,8 -13,18 -13,30l0 0c0,12 5,23 13,31 8,8 18,13 30,13l210 0c9,0 17,-4 23,-10l0 1c6,-6 9,-14 9,-23l0 -23c0,-9 -3,-17 -9,-23 -6,-5 -14,-9 -23,-9zm0 143l-210 0c-12,0 -22,5 -30,13l0 0c-8,8 -13,19 -13,31l0 0c0,12 5,23 13,31 8,7 18,12 30,12l210 0c9,0 17,-3 23,-9 6,-6 9,-14 9,-23l0 -22c0,-9 -3,-17 -9,-23l0 0c-6,-6 -14,-10 -23,-10zm0 144l-210 0c-12,0 -22,5 -30,12l0 0c-8,8 -13,19 -13,31l0 0c0,12 5,23 13,31 8,8 18,13 30,13l210 0 0 0c9,0 17,-4 23,-10l0 0c6,-6 9,-14 9,-23l0 -22c0,-9 -3,-17 -9,-23l0 0c-6,-6 -14,-9 -23,-9zm-902 38c0,-17 10,-29 22,-34 5,-2 10,-3 15,-3 5,0 10,1 15,3 12,5 22,17 22,34l0 0c0,18 -10,29 -22,34 -5,2 -10,3 -15,3 -5,0 -10,-1 -15,-3 -12,-5 -22,-16 -22,-34z"/>
  </g>
 </g>
</svg>
