<?xml version="1.0" encoding="UTF-8"?>
<!DOCTYPE svg PUBLIC "-//W3C//DTD SVG 1.1//EN" "http://www.w3.org/Graphics/SVG/1.1/DTD/svg11.dtd">
<!-- Creator: CorelDRAW X7 -->
<svg xmlns="http://www.w3.org/2000/svg" xml:space="preserve" width="40mm" height="40mm" version="1.1" style="shape-rendering:geometricPrecision; text-rendering:geometricPrecision; image-rendering:optimizeQuality; fill-rule:evenodd; clip-rule:evenodd"
viewBox="0 0 4000 4000"
 xmlns:xlink="http://www.w3.org/1999/xlink">
 <defs>
  <style type="text/css">
   <![CDATA[
    .fil0 {fill:#F39314}
    .fil1 {fill:#5B5B5B;fill-rule:nonzero}
   ]]>
  </style>
 </defs>
 <g id="Слой_x0020_1">
  <metadata id="CorelCorpID_0Corel-Layer"/>
  <g id="_1911496655472">
   <path class="fil0" d="M2466 1915c0,179 -145,324 -323,324 -179,0 -324,-145 -324,-324 0,-179 145,-324 324,-324 178,0 323,145 323,324z"/>
   <path class="fil1" d="M1549 1654l86 0 0 -50 -86 0 0 50zm118 64l-150 0 -31 0 0 -32 0 -114 0 -32 31 0 150 0 32 0 0 32 0 114 0 32 -32 0z"/>
   <path class="fil1" d="M2366 1876l0 10 0 7 0 1 0 0 -4 7 -60 101 0 415 131 0 0 62 -139 0c-15,0 -29,-6 -39,-16l0 0c-10,-10 -16,-24 -16,-38l0 -432 0 -8 5 -8 19 -32 33 -54 8 -14 0 -84 62 0 0 83z"/>
   <path class="fil1" d="M2447 1876l0 10 0 7 0 1 0 0 5 7 60 101 0 415 -132 0 0 62 139 0c15,0 29,-6 39,-16l0 0c10,-10 16,-24 16,-38l0 -432 0 -8 -4 -8 -20 -32 -32 -54 -8 -14 0 -84 -63 0 0 83z"/>
   <path class="fil1" d="M1959 1876l0 10 0 7 0 1 0 0 -4 7 -60 101 0 415 131 0 0 62 -139 0c-15,0 -29,-6 -39,-16l0 0c-10,-10 -16,-24 -16,-38l0 -432 0 -8 5 -8 19 -32 33 -54 8 -14 0 -84 62 0 0 83z"/>
   <path class="fil1" d="M2040 1876l0 10 0 7 0 1 0 0 5 7 60 101 0 415 -132 0 0 62 139 0c15,0 29,-6 39,-16l0 0c10,-10 16,-24 16,-38l0 -432 0 -8 -4 -8 -20 -32 -32 -54 -8 -14 0 -84 -63 0 0 83z"/>
   <path class="fil1" d="M1996 1687c14,0 27,-6 36,-15l0 0c10,-10 15,-22 15,-37 0,-14 -5,-27 -15,-36 -9,-9 -22,-15 -36,-15 -14,0 -27,6 -36,15l0 0c-10,9 -15,22 -15,36 0,15 5,27 15,37 9,9 22,15 36,15zm81 29c-21,21 -49,34 -81,34 -32,0 -60,-13 -81,-33 -21,-21 -34,-50 -34,-82 0,-31 13,-60 34,-81l0 0c21,-21 49,-33 81,-33 32,0 60,12 81,33 21,21 34,50 34,81 0,32 -13,61 -34,82l0 -1z"/>
   <path class="fil1" d="M1553 1876l0 10 0 7 0 1 0 0 -5 7 -60 101 0 415 132 0 0 62 -139 0c-15,0 -29,-6 -39,-16l0 0c-10,-10 -16,-24 -16,-38l0 -432 0 -8 4 -8 20 -32 32 -54 8 -14 0 -84 63 0 0 83z"/>
   <path class="fil1" d="M1634 1876l0 10 0 7 0 1 0 0 4 7 60 101 0 415 -131 0 0 62 139 0c15,0 29,-6 39,-16l0 0c10,-10 16,-24 16,-38l0 -432 0 -8 -5 -8 -19 -32 -33 -54 -8 -14 0 -84 -62 0 0 83z"/>
   <path class="fil1" d="M2362 1654l86 0 0 -50 -86 0 0 50zm118 64l-149 0 -32 0 0 -32 0 -114 0 -32 32 0 149 0 32 0 0 32 0 114 0 32 -32 0z"/>
  </g>
 </g>
</svg>
