<?xml version="1.0" encoding="UTF-8"?>
<!DOCTYPE svg PUBLIC "-//W3C//DTD SVG 1.1//EN" "http://www.w3.org/Graphics/SVG/1.1/DTD/svg11.dtd">
<!-- Creator: CorelDRAW X7 -->
<svg xmlns="http://www.w3.org/2000/svg" xml:space="preserve" width="40mm" height="40mm" version="1.1" style="shape-rendering:geometricPrecision; text-rendering:geometricPrecision; image-rendering:optimizeQuality; fill-rule:evenodd; clip-rule:evenodd"
viewBox="0 0 4000 4000"
 xmlns:xlink="http://www.w3.org/1999/xlink">
 <defs>
  <style type="text/css">
   <![CDATA[
    .fil1 {fill:#5B5B5B}
    .fil0 {fill:#F39314}
    .fil2 {fill:#5B5B5B;fill-rule:nonzero}
   ]]>
  </style>
 </defs>
 <g id="Слой_x0020_1">
  <metadata id="CorelCorpID_0Corel-Layer"/>
  <path class="fil0" d="M2324 2055c0,179 -145,324 -324,324 -179,0 -324,-145 -324,-324 0,-178 145,-323 324,-323 179,0 324,145 324,323z"/>
  <path class="fil1" d="M2000 1599c-126,0 -240,51 -322,134l0 0 0 0 0 0c-83,83 -134,197 -134,322 0,126 51,240 134,323l0 0c82,82 196,133 322,133 126,0 239,-50 322,-133l0 0 1 0c82,-83 133,-197 133,-323 0,-125 -50,-238 -132,-320l-1 -2c-83,-83 -197,-134 -323,-134l0 0zm273 183c-70,-69 -166,-113 -273,-113 -107,0 -203,44 -273,113l0 0c-70,70 -113,167 -113,273 0,107 43,203 113,273l0 0 0 0c70,70 166,113 273,113 107,0 203,-43 273,-113 70,-70 113,-166 113,-273 0,-106 -43,-201 -112,-271l-1 -2z"/>
  <path class="fil1" d="M1565 1738c-11,16 -33,20 -49,10 -16,-11 -20,-33 -9,-49 10,-15 21,-30 33,-44 12,-15 25,-29 37,-41 12,-12 26,-25 41,-37 14,-12 29,-23 44,-33 15,-10 31,-20 47,-29l2 -1c15,-8 31,-16 48,-23 18,-7 38,1 46,19 7,18 -1,38 -19,46 -14,6 -28,12 -42,20l-1 1c-15,8 -29,16 -42,25 -14,10 -27,19 -39,29 -12,10 -24,21 -36,33 -12,12 -23,24 -32,35 -10,12 -20,25 -29,39z"/>
  <path class="fil1" d="M2214 1556c14,6 29,13 44,21 14,8 28,16 41,25 14,9 27,19 39,29l0 0c12,10 24,21 36,33 12,12 22,24 32,35 10,12 20,25 29,39 11,16 33,20 49,9 16,-10 20,-32 9,-48 -10,-15 -21,-30 -33,-44 -12,-15 -25,-29 -37,-41 -12,-13 -26,-25 -41,-37l0 0 0 0c-14,-12 -29,-23 -44,-33 -15,-10 -31,-20 -47,-29 -16,-8 -32,-16 -50,-24 -18,-7 -38,1 -46,19 -7,18 1,38 19,46l0 0z"/>
  <path class="fil2" d="M1801 2279l-29 0 0 -110 31 0 32 41 32 -41 30 0 0 110 -29 0 0 -67 -27 34 -12 0 -28 -34 0 67zm190 0l-29 0 0 -110 30 0 0 65 50 -65 29 0 0 110 -31 0 0 -64 -49 64zm175 0l-31 0 0 -110 31 0 0 41 45 0 0 -41 31 0 0 110 -31 0 0 -43 -45 0 0 43z"/>
  <path class="fil2" d="M1856 2106c-35,0 -65,-8 -90,-24l0 -58c26,18 55,27 87,27 18,0 33,-4 45,-13 11,-9 17,-21 17,-36 0,-15 -5,-27 -16,-35 -11,-9 -25,-14 -43,-14 -14,0 -28,3 -42,8l0 -40 71 -65 -109 0 0 -53 187 0 0 46 -67 62c21,3 40,13 56,29 16,15 24,36 24,62 0,31 -12,56 -34,75 -23,19 -51,29 -86,29zm287 0c-26,0 -49,-8 -69,-22 -19,-15 -33,-33 -43,-56 -10,-23 -15,-48 -15,-76 0,-28 4,-53 14,-76 10,-23 25,-43 45,-57 20,-14 43,-22 68,-22 39,0 70,16 93,46 23,30 35,66 35,109 0,42 -12,78 -35,108 -23,31 -54,46 -93,46zm-48 -85c12,18 28,28 48,28 21,0 37,-10 49,-28 12,-19 18,-42 18,-69 0,-28 -6,-51 -18,-69 -12,-19 -28,-28 -49,-28 -20,0 -36,9 -48,28 -12,18 -18,41 -18,69 0,27 6,50 18,69z"/>
 </g>
</svg>
