<?xml version="1.0" encoding="UTF-8"?>
<!DOCTYPE svg PUBLIC "-//W3C//DTD SVG 1.1//EN" "http://www.w3.org/Graphics/SVG/1.1/DTD/svg11.dtd">
<!-- Creator: CorelDRAW X7 -->
<svg xmlns="http://www.w3.org/2000/svg" xml:space="preserve" width="40mm" height="40mm" version="1.1" style="shape-rendering:geometricPrecision; text-rendering:geometricPrecision; image-rendering:optimizeQuality; fill-rule:evenodd; clip-rule:evenodd"
viewBox="0 0 4000 4000"
 xmlns:xlink="http://www.w3.org/1999/xlink">
 <defs>
  <style type="text/css">
   <![CDATA[
    .fil1 {fill:#5B5B5B}
    .fil0 {fill:#F39314}
    .fil2 {fill:#5B5B5B;fill-rule:nonzero}
   ]]>
  </style>
 </defs>
 <g id="Слой_x0020_1">
  <metadata id="CorelCorpID_0Corel-Layer"/>
  <path class="fil0" d="M2324 2055c0,179 -145,324 -324,324 -179,0 -324,-145 -324,-324 0,-178 145,-323 324,-323 179,0 324,145 324,323z"/>
  <path class="fil1" d="M2000 1599c-126,0 -240,51 -322,134l0 0 0 0 0 0c-83,83 -134,197 -134,322 0,126 51,240 134,323l0 0c82,82 196,133 322,133 126,0 239,-50 322,-133l0 0 1 0c82,-83 133,-197 133,-323 0,-125 -50,-238 -132,-320l-1 -2c-83,-83 -197,-134 -323,-134l0 0zm273 183c-70,-69 -166,-113 -273,-113 -107,0 -203,44 -273,113l0 0c-70,70 -113,167 -113,273 0,107 43,203 113,273l0 0 0 0c70,70 166,113 273,113 107,0 203,-43 273,-113 70,-70 113,-166 113,-273 0,-106 -43,-201 -112,-271l-1 -2z"/>
  <path class="fil1" d="M1565 1738c-11,16 -33,20 -49,10 -16,-11 -20,-33 -9,-49 10,-15 21,-30 33,-44 12,-15 25,-29 37,-41 12,-12 26,-25 41,-37 14,-12 29,-23 44,-33 15,-10 31,-20 47,-29l2 -1c15,-8 31,-16 48,-23 18,-7 38,1 46,19 7,18 -1,38 -19,46 -14,6 -28,12 -42,20l-1 1c-15,8 -29,16 -42,25 -14,10 -27,19 -39,29 -12,10 -24,21 -36,33 -12,12 -23,24 -32,35 -10,12 -20,25 -29,39z"/>
  <path class="fil1" d="M2214 1556c14,6 29,13 44,21 14,8 28,16 41,25 14,9 27,19 39,29l0 0c12,10 24,21 36,33 12,12 22,24 32,35 10,12 20,25 29,39 11,16 33,20 49,9 16,-10 20,-32 9,-48 -10,-15 -21,-30 -33,-44 -12,-15 -25,-29 -37,-41 -12,-13 -26,-25 -41,-37l0 0 0 0c-14,-12 -29,-23 -44,-33 -15,-10 -31,-20 -47,-29 -16,-8 -32,-16 -50,-24 -18,-7 -38,1 -46,19 -7,18 1,38 19,46l0 0z"/>
  <path class="fil2" d="M1930 2103l-60 0 0 -231 -63 32 0 -60 70 -37 53 0 0 296zm259 0l-210 0 0 -44 87 -79c20,-19 34,-33 41,-44 8,-12 12,-24 12,-36 0,-13 -5,-23 -14,-31 -10,-7 -22,-11 -37,-11 -28,0 -54,11 -80,34l0 -63c24,-19 53,-28 86,-28 29,0 53,8 74,25 21,17 31,39 31,66 0,20 -4,39 -14,55 -8,15 -24,34 -48,56l-51 47 123 0 0 53z"/>
  <path class="fil2" d="M1828 2279l-28 0 0 -105 30 0 30 39 31 -39 30 0 0 105 -29 0 0 -65 -26 33 -12 0 -26 -33 0 65zm206 3c-17,0 -30,-5 -42,-15 -11,-10 -17,-24 -17,-41 0,-15 5,-28 16,-39 10,-11 23,-16 39,-16 16,0 28,5 37,16 9,11 14,24 14,40l0 8 -76 0c1,7 5,12 12,16 6,4 14,6 23,6 12,0 23,-4 34,-10l0 24c-9,7 -23,11 -40,11zm-29 -66l46 0c0,-7 -2,-12 -6,-16 -4,-4 -9,-6 -16,-6 -7,0 -12,2 -16,6 -5,4 -7,9 -8,16zm181 66c-15,0 -29,-5 -40,-15 -11,-11 -17,-24 -17,-41 0,-17 6,-30 17,-40 11,-10 25,-15 41,-15 11,0 22,2 31,7l0 25c-9,-4 -18,-6 -27,-6 -9,0 -17,3 -23,8 -6,6 -9,13 -9,21 0,9 3,16 9,22 6,5 14,8 23,8 11,0 21,-2 29,-7l0 25c-10,5 -21,8 -34,8z"/>
 </g>
</svg>
