<?xml version="1.0" encoding="UTF-8"?>
<!DOCTYPE svg PUBLIC "-//W3C//DTD SVG 1.1//EN" "http://www.w3.org/Graphics/SVG/1.1/DTD/svg11.dtd">
<!-- Creator: CorelDRAW X7 -->
<svg xmlns="http://www.w3.org/2000/svg" xml:space="preserve" width="40mm" height="40mm" version="1.1" style="shape-rendering:geometricPrecision; text-rendering:geometricPrecision; image-rendering:optimizeQuality; fill-rule:evenodd; clip-rule:evenodd"
viewBox="0 0 4000 4000"
 xmlns:xlink="http://www.w3.org/1999/xlink">
 <defs>
  <style type="text/css">
   <![CDATA[
    .fil1 {fill:#5B5B5B}
    .fil0 {fill:#F39314}
   ]]>
  </style>
 </defs>
 <g id="Слой_x0020_1">
  <metadata id="CorelCorpID_0Corel-Layer"/>
  <path class="fil0" d="M2142 2149c0,179 -145,324 -324,324 -179,0 -324,-145 -324,-324 0,-179 145,-324 324,-324 179,0 324,145 324,324z"/>
  <path class="fil1" d="M1762 1965l84 -84c11,-11 11,-29 0,-40 -11,-11 -28,-11 -39,0l-85 85 -84 -85c-11,-11 -29,-11 -39,0 -11,11 -11,29 0,40l84 84 -84 85c-11,11 -11,28 0,39 5,6 12,8 19,8 8,0 15,-2 20,-8l84 -84 85 84c5,6 12,8 20,8 7,0 14,-2 19,-8 11,-11 11,-28 0,-39l-84 -85z"/>
  <path class="fil1" d="M2251 2333l84 -84c11,-11 11,-29 0,-40 -11,-10 -28,-10 -39,0l-85 85 -84 -85c-11,-10 -29,-10 -39,0 -11,11 -11,29 0,40l84 84 -84 85c-11,11 -11,28 0,39 5,6 12,8 19,8 7,0 15,-2 20,-8l84 -84 85 84c5,6 12,8 20,8 7,0 14,-2 19,-8 11,-11 11,-28 0,-39l-84 -85z"/>
  <path class="fil1" d="M2343 1798c-59,0 -107,48 -107,107 0,59 48,107 107,107 59,0 107,-48 107,-107 0,-59 -48,-107 -107,-107zm0 270c-90,0 -163,-73 -163,-163 0,-90 73,-163 163,-163 90,0 163,73 163,163 0,90 -73,163 -163,163z"/>
  <path class="fil1" d="M1728 2435c-9,0 -18,-5 -24,-13 -8,-13 -4,-30 9,-39 463,-296 258,-807 256,-812 -6,-14 1,-30 15,-36 14,-6 31,0 37,15 2,5 224,559 -278,881 -5,2 -10,4 -15,4z"/>
  <path class="fil1" d="M1918 1732c-5,0 -9,-1 -13,-3 -14,-7 -19,-24 -12,-38l73 -147c7,-14 24,-19 38,-12 13,7 19,23 12,37l-73 147c-5,10 -15,16 -25,16z"/>
  <path class="fil1" d="M2134 1667c-5,0 -10,-1 -15,-4l-141 -84c-13,-8 -18,-25 -10,-38 8,-13 25,-18 39,-10l141 84c13,8 18,25 10,39 -6,8 -15,13 -24,13z"/>
 </g>
</svg>
