<?xml version="1.0" encoding="UTF-8"?>
<!DOCTYPE svg PUBLIC "-//W3C//DTD SVG 1.1//EN" "http://www.w3.org/Graphics/SVG/1.1/DTD/svg11.dtd">
<!-- Creator: CorelDRAW X7 -->
<svg xmlns="http://www.w3.org/2000/svg" xml:space="preserve" width="40mm" height="40mm" version="1.1" style="shape-rendering:geometricPrecision; text-rendering:geometricPrecision; image-rendering:optimizeQuality; fill-rule:evenodd; clip-rule:evenodd"
viewBox="0 0 4000 4000"
 xmlns:xlink="http://www.w3.org/1999/xlink">
 <defs>
  <style type="text/css">
   <![CDATA[
    .fil1 {fill:#5B5B5B}
    .fil0 {fill:#F39314}
   ]]>
  </style>
 </defs>
 <g id="Слой_x0020_1">
  <metadata id="CorelCorpID_0Corel-Layer"/>
  <g id="_1912614524416">
   <path class="fil0" d="M2546 2076c0,178 -145,323 -324,323 -179,0 -324,-145 -324,-323 0,-179 145,-324 324,-324 179,0 324,145 324,324z"/>
   <path class="fil1" d="M2299 1919l-97 0 0 59 97 0c33,0 60,27 60,60l0 167c0,33 -27,61 -60,61l-27 0 0 257 59 0 0 -203c50,-14 87,-60 87,-115l0 -167c0,-65 -53,-119 -119,-119z"/>
   <path class="fil1" d="M1574 1978l95 0 0 -59 -95 0c-66,0 -120,54 -120,119l0 167c0,55 37,101 88,115l0 203 59 0 0 -257 -27 0c-33,0 -61,-28 -61,-61l0 -167c0,-33 28,-60 61,-60z"/>
   <path class="fil1" d="M2143 1919c-1,-13 -4,-25 -9,-37 -9,-25 -27,-45 -50,-59 -18,-11 -38,-17 -61,-17l-175 0c-22,0 -43,6 -61,17 -23,14 -40,34 -50,59 -5,12 -7,24 -8,37 0,2 -1,4 -1,7l0 228c0,16 3,31 9,44 9,24 26,43 47,57l3 2c9,5 19,10 29,13l0 253 59 0 0 -308 -6 0 -21 0c-14,0 -28,-5 -38,-14 -14,-11 -22,-28 -22,-47l0 -228 0 -1c0,-33 27,-60 60,-60l175 0c34,0 61,27 61,61l0 0 0 228c0,19 -8,35 -21,46 -11,9 -25,15 -40,15l-19 0 -8 0 0 308 60 0 0 -254c10,-2 19,-7 28,-12l5 -3c20,-13 36,-33 45,-56 6,-13 9,-28 9,-44l0 -228c0,-3 0,-5 0,-7z"/>
   <path class="fil1" d="M1936 1536c44,0 80,36 80,80 0,44 -36,80 -80,80 -44,0 -80,-36 -80,-80 0,-44 36,-80 80,-80zm0 219c77,0 139,-62 139,-139 0,-77 -62,-139 -139,-139 -77,0 -140,62 -140,139 0,77 63,139 140,139z"/>
   <path class="fil1" d="M2257 1649c44,0 80,36 80,80 0,44 -36,80 -80,80 -45,0 -80,-36 -80,-80 0,-44 35,-80 80,-80zm0 219c76,0 139,-62 139,-139 0,-77 -63,-139 -139,-139 -77,0 -140,62 -140,139 0,77 63,139 140,139z"/>
   <path class="fil1" d="M1616 1649c44,0 80,36 80,80 0,44 -36,80 -80,80 -44,0 -80,-36 -80,-80 0,-44 36,-80 80,-80zm0 219c77,0 139,-62 139,-139 0,-77 -62,-139 -139,-139 -77,0 -139,62 -139,139 0,77 62,139 139,139z"/>
  </g>
 </g>
</svg>
