<?xml version="1.0" encoding="UTF-8"?>
<!DOCTYPE svg PUBLIC "-//W3C//DTD SVG 1.1//EN" "http://www.w3.org/Graphics/SVG/1.1/DTD/svg11.dtd">
<!-- Creator: CorelDRAW X7 -->
<svg xmlns="http://www.w3.org/2000/svg" xml:space="preserve" width="40mm" height="40mm" version="1.1" style="shape-rendering:geometricPrecision; text-rendering:geometricPrecision; image-rendering:optimizeQuality; fill-rule:evenodd; clip-rule:evenodd"
viewBox="0 0 4000 4000"
 xmlns:xlink="http://www.w3.org/1999/xlink">
 <defs>
  <style type="text/css">
   <![CDATA[
    .fil1 {fill:#5B5B5B}
    .fil0 {fill:#F39314}
   ]]>
  </style>
 </defs>
 <g id="Слой_x0020_1">
  <metadata id="CorelCorpID_0Corel-Layer"/>
  <path class="fil0" d="M2473 1837c0,179 -145,324 -324,324 -179,0 -324,-145 -324,-324 0,-179 145,-324 324,-324 179,0 324,145 324,324z"/>
  <path class="fil1" d="M2467 2412c-1,15 -9,28 -20,38l-7 5c-9,8 -19,12 -31,13 -19,2 -37,-6 -49,-21l-136 -166c36,-21 68,-47 96,-77l135 166c9,12 14,26 12,42zm-844 -505c0,-208 169,-377 377,-377 208,0 378,169 378,377 0,208 -170,377 -378,377 -208,0 -377,-169 -377,-377zm879 424l-143 -175c49,-71 78,-157 78,-249 0,-241 -196,-436 -437,-436 -240,0 -436,195 -436,436 0,241 196,436 436,436 60,0 117,-12 168,-33l145 176c24,31 63,47 102,43 24,-2 46,-11 64,-26l7 -6c24,-20 39,-48 42,-79 3,-32 -6,-63 -26,-87z"/>
  <path class="fil1" d="M1785 1766c95,-32 145,111 53,147 -99,40 -155,-112 -53,-147zm102 -186c-18,8 -34,17 -50,27 8,46 9,27 54,49 23,11 33,24 59,7 18,-12 32,-24 48,-35 12,6 17,10 25,22 -4,11 -23,35 -33,48 -22,29 -9,34 3,62 10,22 8,43 31,51 22,7 48,5 70,13l1 31c-21,10 -47,8 -70,14 -25,8 -24,31 -34,54 -12,26 -24,29 -5,57 13,18 29,32 35,55 -11,8 -10,11 -23,17 -18,-10 -33,-23 -49,-34 -27,-20 -33,-8 -59,4 -27,12 -44,7 -52,31 -7,23 -6,49 -14,69 -41,12 -35,-8 -40,-44 -7,-43 -3,-38 -41,-51 -37,-12 -42,-28 -67,-15 5,18 12,36 19,53 8,0 18,4 33,11 9,17 9,43 13,66 10,12 20,24 31,35 9,1 20,0 34,0 33,0 60,7 68,-23l11 -67c17,-45 62,-6 85,10 42,31 49,10 78,-18 27,-26 51,-35 18,-78 -7,-9 -22,-29 -28,-39 -9,-16 0,-25 10,-44 32,-5 77,-5 96,-27 8,-21 6,-86 -1,-108 -23,-13 -64,-14 -96,-21 -15,-39 -20,-28 15,-75 26,-35 34,-41 2,-73 -84,-85 -56,-41 -140,1l-35 -14c-1,-7 -2,-14 -2,-21zm-104 133c-170,36 -118,288 53,255 165,-32 116,-291 -53,-255z"/>
  <path class="fil1" d="M1541 1656c69,24 57,22 84,-1 17,-15 31,-16 31,-34 1,-18 -8,-37 -4,-55l23 -7c15,29 21,44 26,51 12,-10 25,-20 39,-29l-11 -1c-34,-78 -33,-68 -76,-55 -74,22 -34,27 -38,87 0,0 -1,1 -1,2 0,0 -11,21 -36,13 -10,-4 -34,-14 -43,-14 -21,-2 -25,15 -30,28 -6,13 -18,28 -21,42 7,30 53,38 53,59 2,39 -29,25 -66,57 0,16 13,69 25,80 11,8 31,3 50,0 23,-3 26,-1 37,14 -2,-19 -2,-37 0,-55 -2,-1 -4,-1 -6,-1 -14,-1 -39,5 -56,5l-7 -22c15,-11 33,-16 48,-25 17,-12 9,-25 12,-44 7,-55 -3,-31 -44,-73l11 -22z"/>
 </g>
</svg>
