<?xml version="1.0" encoding="UTF-8"?>
<!DOCTYPE svg PUBLIC "-//W3C//DTD SVG 1.1//EN" "http://www.w3.org/Graphics/SVG/1.1/DTD/svg11.dtd">
<!-- Creator: CorelDRAW X7 -->
<svg xmlns="http://www.w3.org/2000/svg" xml:space="preserve" width="40mm" height="40mm" version="1.1" style="shape-rendering:geometricPrecision; text-rendering:geometricPrecision; image-rendering:optimizeQuality; fill-rule:evenodd; clip-rule:evenodd"
viewBox="0 0 4000 4000"
 xmlns:xlink="http://www.w3.org/1999/xlink">
 <defs>
  <style type="text/css">
   <![CDATA[
    .fil0 {fill:#F39314}
    .fil1 {fill:#5B5B5B;fill-rule:nonzero}
   ]]>
  </style>
 </defs>
 <g id="Слой_x0020_1">
  <metadata id="CorelCorpID_0Corel-Layer"/>
  <path class="fil0" d="M2508 1942c0,179 -144,324 -323,324 -179,0 -324,-145 -324,-324 0,-179 145,-323 324,-323 179,0 323,144 323,323z"/>
  <path class="fil1" d="M1554 2062l-50 0 0 -271 -72 38 0 -50 77 -43 45 0 0 326zm191 6c-41,0 -75,-16 -100,-49 -25,-33 -37,-73 -37,-120 0,-47 12,-87 37,-120 25,-33 59,-49 100,-49 42,0 75,16 100,49 25,33 37,73 37,120 0,47 -12,87 -37,120 -25,33 -58,49 -100,49zm0 -48c26,0 47,-12 62,-35 16,-23 24,-52 24,-86 0,-34 -8,-63 -24,-86 -15,-24 -36,-35 -62,-35 -26,0 -46,11 -62,35 -16,23 -24,52 -24,86 0,33 8,62 24,86 16,23 36,35 62,35zm311 48c-41,0 -75,-16 -100,-49 -25,-33 -37,-73 -37,-120 0,-47 12,-87 37,-120 25,-33 59,-49 100,-49 42,0 75,16 100,49 25,33 38,73 38,120 0,47 -13,87 -38,120 -25,33 -58,49 -100,49zm0 -48c26,0 47,-12 62,-35 16,-23 24,-52 24,-86 0,-34 -8,-63 -24,-86 -15,-24 -36,-35 -62,-35 -26,0 -46,11 -62,35 -16,23 -24,52 -24,86 0,33 8,62 24,86 16,23 36,35 62,35zm261 42l-40 0 194 -326 38 0 -192 326zm-18 -332c23,0 43,7 58,22 15,16 23,34 23,57 0,22 -8,41 -23,56 -15,15 -35,23 -58,23 -23,0 -42,-8 -57,-23 -15,-15 -23,-34 -23,-56 0,-22 8,-41 23,-57 15,-15 34,-22 57,-22zm0 124c13,0 23,-5 31,-13 9,-9 13,-19 13,-32 0,-13 -4,-24 -12,-32 -8,-9 -19,-13 -32,-13 -13,0 -23,4 -31,13 -8,8 -12,19 -12,32 0,13 4,23 12,32 8,8 18,13 31,13zm188 56c23,0 42,8 58,23 15,15 23,34 23,56 0,22 -8,41 -23,56 -16,16 -35,23 -58,23 -23,0 -42,-7 -57,-23 -15,-15 -23,-34 -23,-56 0,-22 8,-41 23,-56 15,-15 34,-23 57,-23zm0 124c13,0 24,-5 32,-13 8,-8 12,-19 12,-32 0,-13 -4,-24 -13,-32 -8,-9 -18,-13 -31,-13 -13,0 -23,4 -31,13 -8,8 -12,19 -12,32 0,13 4,23 12,32 8,8 18,13 31,13z"/>
  <path class="fil1" d="M1492 2286l0 92 -41 0 0 -145 41 0 0 18c13,-15 29,-22 49,-22 16,0 29,6 38,16 10,11 14,25 14,44l0 89 -41 0 0 -81c0,-10 -2,-18 -7,-23 -5,-5 -12,-7 -20,-7 -6,0 -12,2 -18,5 -7,4 -11,8 -15,14zm291 60c3,0 6,0 8,-2l0 30c-5,4 -12,6 -22,6 -16,0 -27,-6 -33,-18 -12,13 -29,20 -49,20 -16,0 -29,-5 -39,-14 -10,-9 -15,-20 -15,-35 0,-15 6,-27 17,-35 11,-8 25,-12 40,-12 17,0 31,3 42,9l0 -5c0,-18 -13,-27 -38,-27 -16,0 -30,4 -44,12l0 -34c15,-8 33,-12 54,-12 21,0 37,5 50,15 12,11 19,24 19,42l0 49c0,7 3,11 10,11zm-51 -11l0 -14c-8,-6 -18,-9 -30,-9 -9,0 -16,2 -21,5 -5,3 -7,8 -7,14 0,6 2,11 7,14 4,3 10,5 18,5 15,0 26,-5 33,-15zm113 -2l0 -66 -28 0 0 -34 28 0 0 -39 41 0 0 39 41 0 0 34 -41 0 0 58c0,7 2,12 5,15 3,3 8,5 15,5 7,0 14,-2 21,-5l0 34c-9,5 -20,8 -35,8 -31,0 -47,-17 -47,-49zm228 -8l0 -92 40 0 0 145 -40 0 0 -18c-13,14 -29,22 -49,22 -16,0 -29,-6 -39,-16 -9,-11 -13,-25 -13,-44l0 -89 40 0 0 80c0,11 3,19 8,24 5,5 12,7 20,7 6,0 12,-2 18,-5 6,-4 11,-8 15,-14zm136 53l-41 0 0 -145 41 0 0 25c5,-8 11,-15 20,-20 10,-6 20,-9 30,-9 3,0 4,1 5,1l0 40c-4,-1 -8,-2 -13,-2 -9,0 -18,3 -26,8 -7,5 -13,10 -16,17l0 85zm234 -32c4,0 6,0 9,-2l0 30c-6,4 -13,6 -22,6 -17,0 -28,-6 -33,-18 -13,13 -30,20 -50,20 -16,0 -29,-5 -39,-14 -9,-9 -14,-20 -14,-35 0,-15 5,-27 17,-35 11,-8 24,-12 40,-12 16,0 30,3 41,9l0 -5c0,-18 -12,-27 -38,-27 -15,0 -30,4 -43,12l0 -34c14,-8 32,-12 53,-12 21,0 38,5 50,15 13,11 19,24 19,42l0 49c0,7 3,11 10,11zm-51 -11l0 -14c-8,-6 -18,-9 -30,-9 -8,0 -15,2 -20,5 -5,3 -8,8 -8,14 0,6 2,11 7,14 5,3 11,5 19,5 14,0 25,-5 32,-15zm141 47c-12,0 -21,-4 -28,-10 -7,-7 -10,-17 -10,-30l0 -167 41 0 0 156c0,9 4,14 13,14 4,0 7,-1 10,-2l0 33c-7,4 -15,6 -26,6z"/>
 </g>
</svg>
