<?xml version="1.0" encoding="UTF-8"?>
<!DOCTYPE svg PUBLIC "-//W3C//DTD SVG 1.1//EN" "http://www.w3.org/Graphics/SVG/1.1/DTD/svg11.dtd">
<!-- Creator: CorelDRAW X7 -->
<svg xmlns="http://www.w3.org/2000/svg" xml:space="preserve" width="40mm" height="40mm" version="1.1" style="shape-rendering:geometricPrecision; text-rendering:geometricPrecision; image-rendering:optimizeQuality; fill-rule:evenodd; clip-rule:evenodd"
viewBox="0 0 4000 4000"
 xmlns:xlink="http://www.w3.org/1999/xlink">
 <defs>
  <style type="text/css">
   <![CDATA[
    .fil1 {fill:#5B5B5B}
    .fil0 {fill:#F39314}
    .fil2 {fill:#5B5B5B;fill-rule:nonzero}
   ]]>
  </style>
 </defs>
 <g id="Слой_x0020_1">
  <metadata id="CorelCorpID_0Corel-Layer"/>
  <path class="fil0" d="M2325 1865c0,179 -144,324 -323,324 -179,0 -324,-145 -324,-324 0,-179 145,-324 324,-324 179,0 323,145 323,324z"/>
  <path class="fil1" d="M1923 2078c13,-13 26,-26 39,-39 13,-13 25,-25 39,-38 13,-13 26,-25 39,-39 12,-13 26,-25 38,-38l20 97c20,3 59,12 83,16 15,3 14,2 22,11l66 66c11,11 21,21 33,32l164 165c11,10 21,22 33,33 8,8 11,7 8,23 -1,10 -3,17 -6,27 -10,31 -34,61 -53,77 -23,18 -57,38 -95,38l-303 -303c-13,-12 -10,-8 -15,-31 -2,-12 -12,-70 -16,-76 -5,-4 -87,-16 -96,-21zm41 50l3 1 -2 2c-44,43 -87,86 -130,130 -19,19 -84,81 -98,98 -14,16 -8,30 -13,52 -14,62 -85,113 -161,80 -48,-22 -76,-74 -67,-125 2,-13 10,-38 18,-45 1,-4 1,-3 3,-4 9,-16 29,-31 49,-40 35,-15 53,-3 70,-18l44 -43c15,-15 29,-30 44,-44 29,-29 59,-58 88,-88 15,-16 29,-29 44,-44 7,-8 37,-40 44,-44 4,4 21,20 24,25 -8,8 -33,31 -38,42 -12,25 20,3 -57,76 -16,15 -54,55 -67,67l-27 26c-5,6 -8,8 -13,14 -4,4 -11,8 -13,14 -5,13 4,31 23,27 7,-1 11,-6 15,-11l68 -67c10,-10 87,-87 91,-93l58 12zm235 -238l5 2c-3,4 -1,1 -4,3 -1,4 -31,32 -36,37l-37 36c-3,-17 -6,-33 -9,-49 -3,-17 -11,-27 -26,-33 -30,-12 -49,16 -71,39 -5,-2 -21,-20 -26,-24 9,-9 18,-18 27,-27 10,-10 77,-79 82,-81 11,22 28,42 41,56 24,24 29,24 54,41zm-437 -88l-3 -4c-9,-7 -89,-88 -109,-109 -5,-4 -35,3 -43,-3 -3,-2 -16,-16 -20,-20l-42 -43 77 -77 49 48c18,20 16,11 16,34 0,25 -1,21 13,34l146 146c33,32 64,65 97,97 8,8 45,44 48,49l-38 38c-5,-2 -133,-133 -144,-143l-47 -47zm-255 -246c1,-2 -1,-1 4,-3 1,-3 50,-51 54,-54 1,-4 0,-2 3,-4 1,-1 0,-1 3,-1l23 24 -78 77 -24 -25 15 -14zm997 109c3,21 1,47 -5,68 -27,101 -129,164 -227,142 -178,-41 -207,-267 -62,-356 44,-26 73,-28 121,-28 -2,4 -37,38 -46,47 -9,10 -40,39 -45,47 -11,16 -7,62 -7,85 0,16 0,31 0,47 0,55 45,46 93,46 23,0 70,4 85,-7 8,-6 72,-72 87,-86 1,-1 2,-2 3,-3 3,-2 1,-1 3,-2zm-1052 -101l0 15c9,16 0,8 21,29l102 102c8,8 14,17 32,17 31,2 20,-3 37,14l227 227 -251 251c-13,13 -5,9 -28,11 -18,2 -43,10 -57,18l-5 3c-2,2 -8,5 -11,8 -10,7 -23,19 -31,29 -11,14 -21,32 -27,53 -14,47 -4,94 19,129 76,116 256,84 284,-56 4,-20 0,-26 8,-34l59 -59c16,-16 146,-148 160,-160 6,17 6,45 15,57 4,6 12,13 17,18l88 88c70,69 141,142 211,211 6,6 12,12 23,13 11,2 24,0 34,-1 20,-4 36,-10 53,-18 31,-15 55,-37 76,-64 38,-48 36,-90 40,-100l0 -19c-8,-15 2,-7 -19,-28l-301 -302c-25,-25 -44,-12 -68,-24l42 -42c7,-7 14,-14 21,-21 29,-30 12,-20 56,-13 12,2 26,2 39,2 111,-3 205,-85 223,-190 8,-46 3,-102 -17,-139l-122 121c-14,14 -7,13 -34,13 -31,0 -64,1 -95,0l0 -96c0,-25 -2,-19 14,-34l79 -79c8,-9 37,-34 41,-43 -21,-6 -31,-12 -57,-17 -5,-1 -18,-2 -21,-3l-34 0c-4,2 -22,3 -29,4 -59,12 -107,44 -142,89 -32,43 -48,95 -46,152 1,30 6,38 9,57 -10,9 -19,20 -30,29 -22,22 -72,75 -90,90l-230 -229c-9,-9 -11,-6 -11,-22 0,-10 1,-19 -3,-28 -5,-11 -97,-99 -114,-116 -5,-6 -10,-11 -16,-16 -34,-25 -61,13 -81,33l-49 50c-3,3 -5,5 -7,9 -2,4 -2,8 -4,11z"/>
  <g>
   <path class="fil2" d="M1921 2076c9,-11 20,-21 30,-31l9 -8 17 -17 21 -22 0 0 7 -6c11,-11 21,-21 32,-33 6,-5 12,-11 17,-17 8,-7 15,-13 21,-21l5 -5 2 7 19 94c13,2 33,7 51,11 11,2 21,4 29,6l0 0 6 1c11,2 11,2 19,10l0 0 65 66 0 0c6,6 12,11 18,17 5,5 10,10 16,16l164 164 0 0c4,4 7,7 10,11 7,7 15,15 23,22l2 3c8,6 9,7 7,24 0,5 -1,9 -2,13 -1,5 -2,9 -4,14 -5,15 -13,30 -22,43 -10,15 -22,27 -33,36 -13,10 -29,22 -49,29 -14,6 -31,10 -48,10l-1 0 -1 -1 -304 -303 -2 -2c-5,-5 -7,-7 -9,-11 -1,-3 -2,-6 -3,-12 0,-2 -1,-4 -2,-8l0 0 -2 -12 0 0c-3,-21 -10,-56 -13,-62 -3,-2 -24,-6 -45,-9 -22,-4 -44,-8 -49,-11l-5 -3 4 -3zm35 -25c-9,8 -18,17 -26,26 9,2 26,5 43,8 23,4 45,8 49,11l0 1 0 0c4,6 11,44 15,65l2 12 0 0 2 9c0,5 1,8 2,10 1,2 3,4 7,8l0 0 3 3 0 0 302 301c15,0 30,-3 44,-9 18,-7 34,-18 46,-28 10,-8 22,-20 32,-35 9,-12 16,-26 21,-40 1,-5 2,-9 3,-13 1,-4 2,-8 3,-13 1,-13 0,-14 -5,-18l0 0 -3 -2 0 0c-8,-8 -15,-15 -22,-23l0 0c-4,-3 -7,-7 -10,-11l-165 -164 0 0c-5,-5 -11,-10 -16,-15 -6,-6 -11,-12 -17,-18l0 0 -66 -65 0 0c-6,-7 -6,-7 -14,-9l0 0 -6 -1 0 0c-8,-1 -19,-4 -29,-6 -20,-4 -41,-9 -54,-10l-3 -1 0 -2 -18 -90c-5,5 -11,10 -16,16 -6,5 -12,11 -18,17 -10,11 -21,21 -32,32l-7 7 0 0c-9,9 -15,15 -21,21l-17 17 0 0 -9 9zm10 73l3 2 5 3 -5 4 -2 1 -15 15c-38,38 -76,76 -115,115 -6,6 -17,17 -29,29 -26,25 -59,57 -68,69 -8,9 -9,18 -9,29 -1,6 -1,13 -3,21 -2,7 -4,14 -7,20 -11,24 -30,45 -53,59 -24,13 -53,18 -83,11 -8,-2 -16,-4 -23,-8l0 0c-25,-11 -45,-30 -57,-53 -12,-23 -17,-49 -13,-76 1,-7 5,-19 9,-28 3,-8 6,-14 10,-18l0 0 0 0c0,-2 0,-2 1,-3l0 0c0,-1 1,-1 1,-2l1 0c5,-8 12,-15 20,-22 9,-7 20,-14 31,-18 17,-8 31,-9 42,-9 11,-1 19,-2 26,-8l44 -44 15 -15c10,-10 19,-19 29,-29 15,-14 30,-29 44,-44 15,-14 30,-29 44,-44 9,-9 17,-17 25,-25l0 0c6,-6 13,-12 19,-19l7 -7c12,-12 32,-34 38,-37l2 -1 2 1c3,2 9,8 14,14l0 0c5,5 10,9 11,12l2 2 -2 3 -5 4 0 0c-11,10 -29,28 -33,36 -3,7 -2,10 -2,12l0 0c0,8 1,12 -56,66 -6,6 -17,17 -29,29 -15,15 -30,31 -38,38l-27 26c-2,2 -4,4 -6,6 -2,2 -4,5 -6,7l0 0c-2,2 -3,3 -5,5l0 0c-3,2 -6,5 -7,9l0 0c-1,2 -2,6 -1,9l0 0c0,3 2,5 3,7 2,2 4,4 6,5l0 0c3,1 7,1 11,0l0 0c5,-1 8,-4 12,-8l1 -1 0 0 67 -67 0 0 11 -11c24,-25 77,-77 80,-82l1 -2 3 1 58 11 1 0 0 0zm-19 19l13 -12 -52 -11c-10,12 -57,59 -80,81l-11 11 -67 67 -1 1c-4,5 -8,9 -16,11l0 0c-5,1 -10,0 -14,-1l0 0c-4,-2 -7,-4 -10,-7 -2,-3 -4,-7 -5,-10 0,-5 0,-10 2,-14l0 0c1,-5 5,-9 9,-12l0 0c2,-1 3,-3 4,-4 3,-3 5,-5 7,-7 2,-2 4,-4 6,-6l0 0 27 -27 0 0c8,-7 23,-22 38,-37 11,-12 22,-23 29,-30 54,-51 54,-54 53,-59 0,-4 0,-7 3,-16 5,-9 24,-28 35,-38l2 -2c-2,-3 -5,-6 -8,-9l0 0c-4,-4 -8,-8 -11,-11 -7,6 -24,24 -35,34l0 0 -6 7 0 0c-7,7 -13,13 -19,19l0 0c-9,9 -17,17 -25,25 -15,15 -30,30 -44,45 -15,14 -30,29 -45,44 -10,9 -19,19 -28,28l-16 15 0 0 -43 44 -1 0c-9,9 -18,9 -30,10 -11,1 -24,2 -40,9 -10,4 -20,10 -29,17 -8,6 -15,13 -19,21l0 0 -1 1 -1 0 0 0 0 0 0 2 0 1 -1 1c-3,2 -6,8 -9,15 -4,10 -7,20 -8,27 -5,25 0,50 12,72 11,21 30,39 53,49l0 0c7,3 14,6 22,8 28,6 55,1 77,-11 22,-12 40,-32 50,-55 3,-6 5,-12 7,-19 1,-7 2,-14 2,-20 1,-12 1,-22 11,-33 10,-12 42,-44 69,-70 12,-12 23,-22 29,-29 38,-38 77,-77 115,-115zm-183 66l0 0 0 0zm437 -323l4 3 4 2 -2 3 -1 1 0 0c-1,1 -1,2 -2,2l0 0c0,1 -1,1 -2,1 -4,7 -20,22 -29,31l-6 6 -37 36 -5 4 -1 -7c-2,-9 -4,-18 -6,-27 -1,-8 -3,-16 -4,-22 -1,-7 -4,-14 -8,-18 -3,-5 -8,-9 -15,-11 -23,-10 -40,8 -57,27l0 0c-4,3 -7,7 -11,10l-1 2 -3 -1c-4,-1 -13,-10 -20,-17 -3,-4 -5,-6 -6,-7l-4 -3 3 -3c8,-7 16,-15 23,-22l0 0 5 -5c6,-6 36,-37 58,-59l0 0c12,-12 22,-22 24,-23l4 -2 2 4c4,10 10,19 16,28 8,10 16,20 24,27 17,18 24,22 37,30 4,3 9,6 16,10zm-5 8l1 -1c-7,-5 -12,-8 -16,-11 -13,-8 -20,-12 -39,-31 -7,-7 -16,-17 -24,-28 -5,-8 -11,-16 -15,-24 -4,3 -11,10 -20,19l0 0c-22,22 -52,52 -58,58l-5 5c-6,7 -13,13 -19,20l4 4c5,6 11,12 15,15 3,-3 5,-6 8,-9l0 0c19,-20 38,-40 66,-29 8,4 14,8 18,14 5,6 8,13 9,22 2,8 3,15 5,21 1,7 2,14 4,21l32 -31 5 -5c10,-10 29,-28 29,-30zm-436 -90l-3 -3c-8,-5 -48,-47 -79,-78 -14,-13 -25,-25 -31,-31 -1,-1 -7,0 -15,0 -10,1 -21,1 -27,-3 -2,-1 -10,-9 -15,-15l-6 -6 -42 -42 -2 -3 2 -2 78 -77 2 -3 3 3 48 48 0 0c4,4 7,7 9,9 4,3 6,5 7,7l0 0c2,4 2,6 1,13l0 7 0 0 0 2 0 0c0,10 0,15 2,18 0,2 2,4 6,8l0 0 4 4 1 0 146 145c18,18 35,36 53,54 15,15 29,29 44,44l3 3c13,12 42,41 45,46l2 3 -2 2 -38 37 -2 2 -2 -1c-5,-1 -89,-86 -127,-125l-19 -18 -46 -48 0 0zm2 -8l3 3 47 47 18 19c36,35 110,111 123,122l33 -33c-7,-8 -31,-32 -42,-42l-4 -4 0 0c-14,-14 -29,-29 -43,-44 -18,-18 -36,-36 -54,-53l0 0 -146 -146 -4 -4c-5,-4 -7,-6 -9,-10 -1,-5 -1,-10 -1,-21l0 0 0 -2 0 0 0 -7 0 0c0,-5 0,-8 -1,-9l0 0c0,-2 -2,-3 -5,-6l0 0c-2,-2 -5,-5 -9,-9l-46 -45 -72 71 40 40 0 0 5 6 0 0c5,5 13,13 15,14 3,2 13,2 22,1 9,0 17,0 20,3 6,6 18,17 31,31 31,31 72,72 78,77l1 1 0 0zm-251 -239l-1 1 0 0 0 1 -12 11 18 20 73 -72 -20 -19 0 0 -1 0 0 0 0 1 0 1 -1 1c-2,1 -15,14 -28,26 -12,13 -25,25 -25,26l-1 1 -1 1 -1 0 0 0 0 1zm-7 -3c0,-1 0,-2 1,-3l0 0c1,0 1,-1 3,-1l0 0c4,-4 15,-16 26,-27 12,-12 24,-24 28,-27l0 0 0 0c0,-1 1,-2 1,-2l0 0c1,-1 1,-1 2,-2l0 0 1 0 0 0c1,-1 1,-1 2,-1l1 -1 0 0 0 0 0 0 1 0 1 1 1 0 1 1 24 23 2 3 -2 3 -78 77 -3 2 -2 -2 -24 -25 -3 -3 3 -2 14 -14zm1004 110c1,11 2,23 1,35l0 0c-1,12 -3,24 -6,35 -14,51 -46,93 -88,119 -42,27 -93,37 -144,25 -59,-13 -102,-47 -128,-89 -14,-23 -23,-47 -27,-73 -4,-25 -3,-51 3,-76l0 0c11,-49 40,-94 89,-124 22,-14 41,-21 60,-25 20,-3 39,-4 63,-3l6 0 -2 5c-2,3 -16,17 -29,30 -8,8 -15,14 -18,18 -3,3 -10,10 -17,17 -12,11 -25,24 -28,29 -8,12 -7,43 -6,67 0,6 0,12 0,16l0 0 0 47c0,38 24,43 54,43 5,0 11,-1 17,-1 6,0 12,0 18,0 5,0 10,0 16,0 24,1 56,2 67,-6 5,-4 37,-37 62,-61 10,-11 20,-20 24,-25l1 0 0 0c1,-1 1,-2 2,-3l2 -1 0 0 0 0 0 -1 1 0 0 0 0 0 1 -1 5 -3 1 6zm-7 34c1,-9 1,-18 0,-26l0 0 0 0 0 1 0 0c-5,4 -14,13 -25,24 -25,25 -57,58 -62,62 -14,10 -47,9 -72,8 -6,0 -12,0 -16,0 -6,0 -12,0 -18,0 -6,0 -11,0 -17,0 -35,0 -61,-5 -62,-50l0 -47 0 0c0,-5 0,-10 0,-16 -1,-25 -2,-57 8,-72 3,-5 17,-18 29,-30 7,-6 13,-13 17,-16 3,-4 10,-11 18,-18 8,-8 17,-17 22,-23 -20,0 -37,1 -53,4 -19,4 -36,10 -58,23 -47,29 -75,73 -86,119 -5,24 -6,50 -2,74 4,24 12,48 25,70 25,40 67,73 124,86 48,11 97,1 138,-24 40,-25 71,-66 85,-115 2,-10 4,-22 5,-34zm-1045 -133l0 13c2,5 3,7 4,9 1,4 2,5 16,19l0 0 101 101 0 0 3 3 0 0c7,7 13,13 27,14 7,0 12,0 16,0 4,0 7,0 9,1l0 0c3,1 5,3 8,7 2,1 4,4 7,6l227 227 2 3 -2 2 -251 252 0 0c-2,2 -4,3 -5,4l0 0c-3,4 -4,5 -6,6 -2,1 -4,1 -7,1 -3,0 -7,0 -12,1 -10,1 -20,3 -30,6 -10,4 -19,8 -26,12l0 0 0 0 -5 2c-2,2 -5,4 -7,5l0 0c-1,1 -3,2 -4,3l0 0c-5,3 -10,8 -16,13 -5,5 -10,11 -14,16 -6,7 -11,15 -16,24 -4,8 -8,17 -10,27 -7,22 -8,44 -5,65 4,22 12,43 23,61 24,37 60,58 97,66 20,4 40,4 60,0 19,-4 38,-11 55,-22 32,-21 57,-54 65,-99 2,-7 2,-13 2,-17 1,-8 1,-13 7,-19l0 0 60 -59 7 -8c33,-33 140,-141 153,-152l4 -4 2 6c2,7 4,15 5,23 2,13 4,26 9,33 3,4 8,9 13,14 1,1 2,2 4,4l87 87c38,37 75,74 113,112 33,33 66,67 99,100 3,2 6,5 9,7 3,2 7,4 12,4 4,1 9,1 14,1 7,0 13,-1 19,-2l0 0c10,-2 18,-4 27,-7 8,-3 16,-6 24,-10 15,-7 29,-17 41,-27 13,-11 24,-23 34,-36 29,-37 34,-70 37,-87 1,-5 1,-9 2,-11l0 -18c-3,-5 -3,-8 -4,-10 0,-3 -1,-4 -13,-17l-302 -301 0 0c-14,-14 -26,-15 -39,-17 -9,-1 -17,-1 -28,-6l-4 -3 3 -3 42 -43c4,-3 7,-7 11,-10 3,-4 7,-7 10,-11 4,-4 7,-7 10,-10 6,-7 9,-10 13,-11 4,0 6,0 11,2 5,1 13,3 25,5l0 0c6,1 13,2 19,2 7,0 13,0 20,0 54,-1 104,-22 143,-55 40,-34 67,-80 76,-132 4,-23 5,-49 2,-74 -3,-21 -8,-41 -16,-58l-118 118c-3,2 -4,4 -6,6l0 0c-3,3 -5,5 -8,7 -4,1 -8,1 -18,1l0 0 -5 0c-10,0 -21,0 -31,0 -22,1 -43,1 -64,0l-4 0 0 -4 0 -96 0 -7 0 0c0,-8 0,-12 2,-15 1,-3 3,-5 8,-9 1,-2 3,-4 5,-6l79 -79c2,-2 7,-7 12,-12 10,-8 21,-19 26,-26 -4,-1 -9,-3 -13,-4 -11,-4 -21,-8 -38,-11 -2,0 -5,-1 -9,-1 -5,-1 -10,-1 -13,-2l-32 0c-3,1 -10,2 -17,2 -5,1 -10,1 -13,2 -28,6 -54,16 -77,30 -23,15 -44,35 -62,58 -16,20 -28,44 -35,69l0 0c-8,25 -11,52 -10,80 0,19 3,29 5,38l0 0c2,6 3,11 4,18l0 2 -1 2c-6,5 -12,11 -18,17 -4,4 -8,8 -12,12 -9,9 -23,22 -37,37 -20,21 -43,44 -53,53l-3 2 -3 -2 -230 -229 0 0c-1,-2 -3,-4 -4,-5l0 0c-6,-4 -8,-6 -7,-20l0 0 0 -1c0,-9 0,-17 -4,-26l0 0c-3,-8 -67,-70 -98,-100l-15 -15 0 0c-1,-2 -3,-3 -4,-5 -4,-3 -7,-7 -11,-10l0 0c-27,-20 -49,4 -68,24 -3,3 -6,6 -9,9l-49 49c-1,2 -2,3 -3,4l0 0c-1,2 -2,3 -3,5l0 0c0,2 -1,3 -1,5 -1,2 -1,3 -2,5zm-8 14l0 -15 0 -1 1 0c0,-2 1,-3 1,-5 1,-2 1,-4 2,-6l0 0c1,-2 3,-4 4,-6 1,-2 2,-3 4,-5l0 0 49 -49 0 0c3,-3 6,-6 9,-10 20,-21 45,-48 77,-24l0 0c5,4 9,7 12,11 2,2 3,3 5,5l14 14c32,31 96,94 100,103l0 0c4,10 4,19 4,29l0 0 0 1c0,11 1,12 5,14 1,2 3,3 5,5l227 227c12,-10 32,-31 51,-51 14,-14 28,-28 37,-36 4,-4 8,-8 12,-12 5,-6 11,-11 16,-17 -1,-5 -2,-10 -3,-15l0 0c-3,-10 -5,-20 -6,-39 -1,-29 3,-57 11,-83l0 0c7,-26 20,-51 36,-72 18,-24 40,-44 64,-59 24,-15 51,-26 80,-31 3,-1 8,-2 13,-2 7,-1 14,-2 16,-2l1 -1 0 0 34 0 1 0 0 1c2,0 7,1 12,1 4,1 7,1 9,1 18,3 28,7 40,12 5,1 11,3 17,6l5 1 -2 4c-3,6 -19,21 -30,32 -6,5 -10,9 -13,12l0 0 -78 79 0 0c-3,2 -5,4 -6,5l0 0c-4,4 -6,5 -6,7 -1,2 -1,5 -1,12l0 0 0 7 0 92c19,1 40,1 60,1 10,0 21,-1 31,-1l5 0 0 0c9,0 13,1 15,0 2,-1 3,-3 6,-5l0 0c1,-2 3,-4 6,-7l121 -121 4 -3 2 4c10,18 17,41 20,65 3,25 2,52 -2,77 -9,53 -38,101 -79,136l0 0c-40,34 -92,55 -148,57 -7,0 -14,0 -21,0 -6,-1 -13,-1 -19,-2 -13,-2 -21,-4 -26,-6 -4,-1 -6,-2 -7,-1l0 0c-2,0 -4,3 -10,8 -2,3 -5,6 -9,11 -4,3 -7,7 -11,10 -3,4 -7,7 -11,11l-37 38c7,2 13,3 20,4 14,1 27,3 43,19l302 301 0 0c14,15 15,16 16,20 0,2 1,4 3,9l1 1 0 1 0 19 0 1 -1 1c0,1 -1,5 -2,10 -2,18 -8,52 -38,90 -10,14 -22,27 -35,38 -12,11 -27,20 -43,28 -8,4 -16,7 -25,10 -9,3 -18,6 -28,7 -6,1 -13,2 -19,2 -6,1 -11,1 -16,0 -6,-1 -11,-3 -15,-6l0 0c-4,-2 -7,-5 -10,-8 -34,-33 -67,-66 -100,-100 -37,-37 -74,-75 -112,-111l0 0 -88 -88 0 0c-1,-1 -2,-3 -4,-4 -4,-4 -10,-10 -13,-15 -6,-8 -8,-22 -11,-35 0,-6 -1,-12 -3,-17 -24,23 -118,117 -147,148l-8 7 0 0 -60 60 0 0c-4,4 -4,7 -4,13 0,5 -1,11 -2,18 -9,47 -35,82 -69,104 -17,12 -37,20 -58,23 -20,4 -42,4 -62,0 -40,-7 -77,-30 -102,-69 -12,-19 -21,-40 -24,-64 -3,-22 -2,-45 4,-68 3,-10 7,-20 12,-28 4,-10 10,-18 16,-26 4,-5 9,-11 15,-16 6,-6 11,-11 17,-14l0 0c1,-1 2,-2 4,-3l0 0c2,-2 5,-4 6,-5l1 -1 1 0 4 -2c7,-4 17,-9 27,-12 11,-3 22,-6 32,-7 6,0 10,-1 12,-1l0 0c3,0 4,0 5,0 1,0 2,-1 4,-4 1,-1 3,-3 4,-5l1 0 248 -248 -224 -224c-3,-3 -5,-5 -7,-7 -3,-3 -4,-5 -5,-5l0 0c-2,0 -4,0 -7,0 -4,0 -9,0 -16,-1 -17,-1 -25,-8 -33,-16l0 0 -2 -3 0 0 -102 -101c-15,-15 -15,-16 -17,-21 -1,-2 -2,-5 -4,-10l-1 -1 0 0z"/>
  </g>
  <path class="fil1" d="M1590 2352l5 -2c8,-5 22,-5 31,-1 30,14 30,55 3,69 -33,18 -65,-15 -55,-45 4,-12 9,-14 16,-21zm-32 91c5,2 2,1 4,3 17,10 26,18 53,17 38,-2 70,-33 73,-68 3,-27 -4,-39 -13,-56 -3,-2 -1,1 -3,-4 -15,-14 -28,-27 -54,-28 -27,-2 -48,7 -61,21 -7,8 -12,13 -17,24 -10,22 -10,47 1,68 2,4 5,9 8,12 3,5 7,7 9,11z"/>
  <path class="fil2" d="M1588 2349l5 -2c5,-3 11,-4 17,-5 6,0 12,2 18,4l0 0c9,4 16,11 20,19 3,6 5,12 5,19 0,6 -1,12 -4,18 -3,8 -10,15 -18,20 -12,6 -23,6 -33,3 -5,-2 -10,-4 -14,-8 -4,-4 -8,-8 -11,-13 -5,-9 -6,-21 -2,-32l0 0c3,-11 7,-14 13,-19 1,-1 2,-2 3,-3l1 -1 0 0zm8 4l-4 3 -3 3 0 0c-5,4 -9,7 -11,15l0 0c-3,9 -2,19 2,27 2,4 5,7 9,10l0 0c3,3 7,5 11,7 8,2 18,2 27,-3 7,-4 12,-9 15,-16 3,-5 4,-10 3,-15 0,-5 -1,-11 -3,-16 -4,-6 -9,-12 -17,-15l0 0c-5,-2 -10,-3 -15,-3 -5,0 -10,1 -14,3l0 0zm-36 87l1 0c1,0 2,1 3,1l0 0c1,1 1,2 1,3l4 2c13,8 23,14 46,13 18,-1 34,-8 46,-20 13,-12 22,-28 24,-45 2,-24 -4,-35 -12,-50l-1 -2c-1,0 -1,0 -2,-1l0 0c-1,-1 -1,-2 -1,-3l-1 -1 -1 -1 0 0c-13,-13 -26,-24 -49,-25 -13,-1 -24,1 -33,4 -10,4 -19,9 -25,16l0 0 -1 0c-6,7 -11,12 -16,23 -4,10 -7,21 -6,32l0 0c0,11 2,22 7,32l0 0c1,2 3,4 4,6 1,2 3,4 4,6 1,2 2,3 4,4l0 0c1,2 3,4 4,6zm-2 7l-2 -1 -1 0 -1 -2c-1,-1 -2,-3 -4,-4 -1,-2 -3,-3 -4,-5l0 0c-2,-2 -3,-4 -5,-7 -1,-2 -2,-4 -3,-7l0 0c-6,-10 -9,-23 -9,-35 0,-12 2,-24 7,-35 5,-12 11,-17 18,-25l0 0 0 0c8,-8 17,-14 28,-18 11,-4 23,-6 36,-5 26,1 40,14 54,27l0 0 2 2 1 1 0 1 1 1 1 0 0 1 1 1 2 4c9,16 15,28 12,54 -2,19 -11,37 -25,50 -14,12 -32,21 -52,21 -25,1 -36,-5 -50,-14l-5 -3 -1 0 0 -1 -1 -1 0 0z"/>
  <path class="fil1" d="M2151 2139c-16,4 -18,22 -9,32l77 77c6,6 11,11 17,18l137 136c23,23 40,2 38,-13 -1,-9 -10,-15 -14,-20l-223 -222c-6,-6 -10,-12 -23,-8z"/>
  <path class="fil2" d="M2152 2142c-3,1 -5,2 -7,4 -2,2 -4,5 -4,7 -1,3 -1,6 0,9 1,2 2,4 3,6l78 78 0 0c4,3 7,6 10,10 2,2 4,4 7,7l137 137 0 0c5,5 10,7 14,8l0 0c3,1 6,0 8,-1 3,-2 5,-4 7,-6 2,-4 3,-8 2,-11 0,-6 -6,-11 -10,-15 -1,-1 -2,-2 -3,-3l-223 -222 0 0 -2 -2 0 0c-4,-4 -8,-8 -17,-6zm-12 -1c3,-3 6,-5 10,-6 14,-4 19,2 25,7l0 0 2 2 222 223 0 0c1,1 2,2 3,3 5,4 12,10 13,19 0,5 -1,11 -4,16 -2,3 -5,6 -9,9 -4,2 -9,3 -14,2l0 0c-5,-2 -11,-5 -17,-11l-138 -137 0 0c-2,-2 -4,-5 -7,-7 -3,-3 -6,-7 -9,-10l-1 0 -77 -77 0 -1c-3,-2 -4,-6 -5,-9 -2,-4 -2,-8 -1,-13 1,-4 4,-7 7,-10l0 0z"/>
  <path class="fil1" d="M2200 1895c3,-2 1,1 4,-3l-5 -2 3 2 -2 3z"/>
  <path class="fil2" d="M2202 1898c0,0 0,0 0,0l-13 6 8 -11 0 0 -36 -28 40 21 4 3 4 2 -2 3 -1 1 0 0c0,1 -1,2 -1,2l-1 0c-1,1 -1,1 -2,1z"/>
  <polygon class="fil1" points="1965,2131 1967,2129 1964,2128 "/>
  <polygon class="fil2" points="1969,2133 1967,2134 1961,2138 1961,2132 1961,2128 1960,2121 1966,2124 1969,2126 1974,2129 "/>
  <path class="fil1" d="M1562 2446c-2,-2 1,-1 -4,-3l4 3z"/>
  <path class="fil2" d="M1564 2441c1,2 1,2 1,3l11 18 -17 -13 -4 -3 -18 -15 22 8 2 1 0 0c1,0 2,1 3,1l0 0z"/>
  <path class="fil1" d="M1675 2339l-3 -4c2,5 0,2 3,4z"/>
  <path class="fil2" d="M1675 2332l3 4 13 17 -18 -11c-1,0 -2,0 -3,-1l0 -1c-1,0 -1,-1 -1,-2l-1 -2 -8 -21 15 17z"/>
  <path class="fil1" d="M1507 1556l4 -3c-5,2 -3,1 -4,3z"/>
  <path class="fil2" d="M1513 1555l-3 4 -18 17 12 -22 0 0 0 0c0,-1 0,-2 1,-3 1,0 1,-1 3,-1l1 -1 22 -11 -18 17z"/>
  <path class="fil1" d="M1565 1499l3 -4c-3,2 -2,0 -3,4z"/>
  <path class="fil2" d="M1571 1498l-4 3 -17 19 11 -23 1 -1c0,-1 1,-2 1,-2l0 0c1,-1 1,-1 2,-2 0,0 1,0 1,0l22 -13 -17 19z"/>
  <path class="fil1" d="M1514 2321l3 -4c-2,1 -2,0 -3,4z"/>
  <path class="fil2" d="M1520 2319l-3 4 -13 23 7 -26 0 -1c0,-2 0,-2 1,-3l0 0c0,-1 1,-1 1,-2l1 0 17 -14 -11 19z"/>
  <polygon class="fil1" points="1762,1802 1759,1798 "/>
  <polygon class="fil2" points="1760,1804 1756,1801 1762,1796 1765,1799 "/>
  <polygon class="fil1" points="1530,2251 1535,2248 "/>
  <polygon class="fil2" points="1529,2247 1534,2245 1537,2252 1532,2254 "/>
  <polygon class="fil1" points="1590,2352 1595,2350 "/>
  <polygon class="fil2" points="1588,2349 1593,2347 1596,2353 1591,2356 "/>
 </g>
</svg>
