<?xml version="1.0" encoding="UTF-8"?>
<!DOCTYPE svg PUBLIC "-//W3C//DTD SVG 1.1//EN" "http://www.w3.org/Graphics/SVG/1.1/DTD/svg11.dtd">
<!-- Creator: CorelDRAW X7 -->
<svg xmlns="http://www.w3.org/2000/svg" xml:space="preserve" width="40mm" height="40mm" version="1.1" style="shape-rendering:geometricPrecision; text-rendering:geometricPrecision; image-rendering:optimizeQuality; fill-rule:evenodd; clip-rule:evenodd"
viewBox="0 0 4000 4000"
 xmlns:xlink="http://www.w3.org/1999/xlink">
 <defs>
  <style type="text/css">
   <![CDATA[
    .fil1 {fill:#5B5B5B}
    .fil0 {fill:#F39314}
   ]]>
  </style>
 </defs>
 <g id="Слой_x0020_1">
  <metadata id="CorelCorpID_0Corel-Layer"/>
  <g id="_1911402848256">
   <path class="fil0" d="M2595 1727c0,179 -145,324 -324,324 -179,0 -324,-145 -324,-324 0,-178 145,-323 324,-323 179,0 324,145 324,323z"/>
   <path class="fil1" d="M2233 2264c22,-20 69,-45 96,-61 26,-17 75,-54 113,-23l-190 126 -19 -42zm-260 -621c103,-35 157,119 58,158 -107,42 -167,-120 -58,-158zm-1 -57c-182,38 -127,309 56,274 178,-35 125,-312 -56,-274zm-174 -95c84,62 69,54 115,33 29,-13 49,-8 57,-32 8,-25 4,-55 17,-77l34 -1c20,121 5,81 67,111 25,12 36,26 63,7 19,-13 35,-25 52,-37 13,6 17,10 27,23 -5,12 -25,38 -36,52 -24,32 -10,37 3,66 11,24 9,47 34,55 23,8 51,6 75,15l1 32c-22,11 -51,9 -75,16 -27,8 -26,33 -37,57 -12,29 -26,32 -5,62 14,20 31,35 38,59 -13,8 -12,12 -25,19 -19,-11 -36,-25 -53,-38 -29,-21 -35,-8 -64,5 -28,13 -47,8 -55,33 -8,25 -6,53 -15,75 -44,13 -37,-9 -44,-48 -7,-46 -2,-41 -44,-54 -58,-20 -41,-47 -129,25 -12,-6 -21,-14 -29,-21 6,-18 26,-42 36,-56 23,-31 11,-32 -3,-63 -11,-24 -9,-47 -32,-57 -18,-7 -55,-9 -77,-16l-1 -33c25,-9 51,-7 75,-14 28,-9 24,-30 35,-54 33,-73 10,-44 -30,-118l25 -26zm120 -30c-1,1 -3,1 -3,3 -1,0 -24,25 -55,2 -12,-9 -41,-32 -53,-37 -26,-11 -40,10 -52,26 -13,16 -36,30 -46,49 -3,44 56,73 48,103 -15,54 -51,21 -114,50 -7,22 -12,99 0,119 12,16 41,17 68,21 37,6 37,12 48,45 -50,87 -89,60 -5,148 30,31 38,31 75,4 38,-27 37,-41 83,-18 11,20 10,52 17,79 8,36 30,29 67,29 36,0 64,9 73,-24l13 -72c18,-48 66,-7 90,11 46,33 53,11 84,-19 29,-29 55,-38 20,-85 -8,-9 -24,-31 -30,-41 -9,-18 0,-27 10,-48 34,-5 83,-6 103,-28 10,-24 7,-93 0,-117 -25,-13 -69,-14 -103,-23 -16,-41 -22,-30 15,-80 29,-38 37,-44 2,-78 -90,-91 -59,-44 -150,1l-37 -15c-14,-120 -17,-107 -81,-107 -109,-1 -56,22 -87,102zm232 766l-47 -1c2,-5 23,-19 32,-24 48,-30 128,-87 169,-51l-111 71c-22,13 -15,6 -43,5zm-785 20c32,10 51,-6 79,-19 53,-24 167,-78 215,-85 195,-26 168,75 289,113 60,19 112,22 180,24 86,3 156,115 -179,82 -53,-5 -124,-33 -166,-20 -19,54 26,52 77,63 70,15 225,22 295,13 45,-6 72,-30 101,-49l187 -122c132,-95 186,-29 105,25 -123,82 -245,163 -372,242 -63,39 -125,99 -220,58 -70,-31 -135,-71 -203,-102 -118,-55 -110,-60 -218,9 -18,11 -40,20 -42,39 -2,23 18,36 39,29 8,-3 38,-24 46,-30 11,-6 35,-23 47,-28 73,-28 297,187 443,148 50,-13 151,-85 197,-113 51,-32 330,-203 360,-250 25,-39 23,-79 -9,-109 -37,-33 -71,-23 -118,-13 -40,-36 -70,-47 -141,-32 -19,-13 -32,-26 -63,-32 -85,-17 -171,56 -254,107 -30,19 -23,23 -65,10 -71,-21 -60,-42 -105,-73 -84,-57 -195,-63 -295,-21l-189 82c-31,14 -34,23 -21,54z"/>
  </g>
 </g>
</svg>
