<?xml version="1.0" encoding="UTF-8"?>
<!DOCTYPE svg PUBLIC "-//W3C//DTD SVG 1.1//EN" "http://www.w3.org/Graphics/SVG/1.1/DTD/svg11.dtd">
<!-- Creator: CorelDRAW X7 -->
<svg xmlns="http://www.w3.org/2000/svg" xml:space="preserve" width="40mm" height="40mm" version="1.1" style="shape-rendering:geometricPrecision; text-rendering:geometricPrecision; image-rendering:optimizeQuality; fill-rule:evenodd; clip-rule:evenodd"
viewBox="0 0 4000 4000"
 xmlns:xlink="http://www.w3.org/1999/xlink">
 <defs>
  <style type="text/css">
   <![CDATA[
    .fil1 {fill:#5B5B5B}
    .fil0 {fill:#F39314}
   ]]>
  </style>
 </defs>
 <g id="Слой_x0020_1">
  <metadata id="CorelCorpID_0Corel-Layer"/>
  <g id="_1912614460160">
   <path class="fil0" d="M2194 2152c0,179 -145,324 -324,324 -179,0 -324,-145 -324,-324 0,-179 145,-323 324,-323 179,0 324,144 324,323z"/>
   <g>
    <path class="fil1" d="M2061 1620l0 0 0 0 0 0zm-65 92l0 0 0 0zm64 -96l0 0 0 0zm-64 96l0 3 1 4 1 7 1 5 -5 0 -8 0 -34 0 -5 0 -4 0 -1 -4 0 -5 0 0 -1 -5 0 0 0 -4 0 0 -1 -4 0 0 0 -4 0 0c0,-19 4,-36 11,-52 7,-17 17,-32 30,-44 13,-13 28,-23 45,-30 17,-8 35,-12 54,-13l1 0 1 0 0 0 2 0c5,-14 12,-27 20,-38l0 0c10,-12 21,-22 33,-31 12,-8 26,-15 40,-20 15,-4 30,-6 45,-6 11,0 22,1 33,3 10,2 21,6 30,10l0 0c10,5 19,10 28,16 8,7 16,14 23,22l1 2 0 0c2,2 3,5 4,8 1,3 2,7 1,10 0,4 -1,7 -3,10 -1,3 -3,6 -6,9l0 0 0 0 0 0c-3,2 -6,4 -10,5l0 0c-3,1 -7,2 -10,1 -4,0 -7,-1 -10,-2 -3,-2 -6,-4 -9,-7l0 0 0 0c-4,-5 -9,-10 -14,-14 -6,-4 -12,-7 -18,-10 -6,-3 -12,-5 -19,-6 -7,-2 -14,-2 -21,-2 -9,0 -17,1 -26,3 -8,3 -17,6 -24,11l-1 0c-7,5 -13,10 -19,16 -5,6 -9,12 -13,20l0 0c4,2 7,3 10,5l0 0c4,2 7,4 10,7l4 3 0 0c1,1 3,3 5,4 2,3 5,6 7,9 3,2 4,6 5,9 1,3 2,7 1,11 0,3 -1,7 -3,10 -1,3 -4,6 -7,8l-3 3 0 0 0 0 0 0 -2 1 0 0 -2 1 -1 0c-1,0 -3,1 -4,1 -2,0 -4,0 -5,0l0 0c-2,0 -4,0 -6,0 -2,-1 -4,-1 -6,-2l0 0c-2,-1 -3,-2 -5,-3l-1 -1 0 0 -3 -4c-3,-4 -7,-7 -12,-9 -4,-3 -10,-5 -15,-6 -6,-2 -13,-2 -20,-2 -8,0 -16,2 -23,3l-1 0 0 0 -2 1 0 0 -3 1 0 0 0 0 0 0 -2 0c-9,3 -17,8 -24,13 -8,5 -14,11 -20,18 -5,7 -9,15 -12,23 -2,8 -4,16 -4,25l0 0 0 3 1 4zm-126 496l-354 0c-8,0 -16,1 -23,4 -8,3 -14,8 -20,14l-1 1 0 0c-5,5 -9,11 -12,18l0 0c-3,7 -5,15 -5,23l0 206 415 0 0 -266zm-470 266l0 -206c0,-15 3,-30 9,-44l0 0c6,-14 14,-27 25,-38 11,-10 23,-19 38,-25 13,-6 28,-9 44,-9l354 0 0 -365 0 -6 0 -5 5 0 6 0 179 0 0 0 6 0 5 0 0 5 0 6 0 353 198 -114 9 -5 7 -4 0 8 0 10 0 104 197 -113 9 -5 7 -4 0 8 0 10 0 105 198 -114 9 -5 7 -4 0 8 0 10 0 0 0 450 0 6 0 5 -5 0 -6 0 -34 0 -6 0 -4 0 0 -5 0 -6 0 -373 -198 113 -9 5 -7 4 0 -8 0 -10 0 -104 -198 113 -9 5 -6 3 0 -7 0 -11 0 -103 -199 113 -9 5 -6 4 0 -8 0 -10 0 -385 -91 0 0 643 669 0 6 0 5 0 0 5 0 6 0 34 0 6 0 4 -5 0 -6 0 -1149 0 -35 0 -112 0 -5 0 -5 0 0 -4 0 -6 0 -34 0 -6 0 -5 5 0 5 0 102 0zm194 -145l-52 0 0 12 0 33 0 72 -55 0 0 -72 0 -33 0 -33c0,-4 0,-9 2,-13l0 0c2,-4 4,-7 7,-10l0 0 1 -2c3,-3 7,-6 11,-7 4,-2 9,-3 14,-3l72 0 133 0 72 0c5,0 10,1 14,3 3,1 5,2 8,4l0 0 3 3c3,4 6,7 8,12 1,4 2,9 2,13l0 33 0 33 0 72 -55 0 0 -72 0 -33 0 -12 -52 0 -133 0zm570 11l-72 0 -5 0 -5 0 0 -4 0 -6 0 -34 0 -6 0 -5 5 0 5 0 72 0 6 0 4 0 0 5 0 6 0 34 0 6 0 4 -4 0 -6 0zm214 0l-71 0 -6 0 -5 0 0 -4 0 -6 0 -34 0 -6 0 -5 5 0 6 0 71 0 6 0 4 0 0 5 0 6 0 34 0 6 0 4 -4 0 -6 0zm214 0l-71 0 -6 0 -4 0 0 -4 0 -6 0 -34 0 -6 0 -5 4 0 6 0 71 0 6 0 5 0 0 5 0 6 0 34 0 6 0 4 -5 0 -6 0z"/>
   </g>
  </g>
 </g>
</svg>
