<?xml version="1.0" encoding="UTF-8"?>
<!DOCTYPE svg PUBLIC "-//W3C//DTD SVG 1.1//EN" "http://www.w3.org/Graphics/SVG/1.1/DTD/svg11.dtd">
<!-- Creator: CorelDRAW X7 -->
<svg xmlns="http://www.w3.org/2000/svg" xml:space="preserve" width="40mm" height="40mm" version="1.1" style="shape-rendering:geometricPrecision; text-rendering:geometricPrecision; image-rendering:optimizeQuality; fill-rule:evenodd; clip-rule:evenodd"
viewBox="0 0 4000 4000"
 xmlns:xlink="http://www.w3.org/1999/xlink">
 <defs>
  <style type="text/css">
   <![CDATA[
    .str0 {stroke:#5B5B5B;stroke-width:20}
    .fil1 {fill:#5B5B5B}
    .fil0 {fill:#F39314}
    .fil2 {fill:#5B5B5B;fill-rule:nonzero}
   ]]>
  </style>
 </defs>
 <g id="Слой_x0020_1">
  <metadata id="CorelCorpID_0Corel-Layer"/>
  <g id="_1912614493856">
   <path class="fil0" d="M2177 1928c0,179 -145,324 -323,324 -179,0 -324,-145 -324,-324 0,-179 145,-324 324,-324 178,0 323,145 323,324z"/>
   <path class="fil1" d="M1616 2057l17 31 -88 46 -16 -31 87 -46zm-43 -220l-98 -12 4 -35 98 13 -4 34zm95 -239l-74 -66 24 -26 73 66 -23 26zm214 -142l-22 -96 34 -8 22 97 -34 7zm290 21l-33 -13 38 -92 32 13 -37 92zm193 169l-19 -29 83 -54 19 30 -83 53zm161 219l-1 35 -99 -4 1 -35 99 4zm-172 242l79 60 -21 28 -79 -60 21 -28zm-198 233c-107,0 -215,0 -322,0 0,-111 -18,-207 -89,-317 -121,-188 6,-437 227,-451 171,-11 312,124 312,292 0,178 -128,171 -128,476zm-186 -803c-162,10 -294,140 -306,302 -15,200 135,236 135,474l0 62 392 0c0,-76 -8,-203 76,-333 144,-223 -26,-522 -297,-505z"/>
   <path class="fil2" d="M1625 2052l16 31 5 9 -9 4 -87 47 -9 4 -5 -9 -16 -31 -5 -8 9 -5 88 -46 8 -5 5 9zm-6 31l-7 -13 -70 37 7 13 70 -37zm-47 -236l-99 -12 -9 -1 1 -10 4 -35 1 -10 10 1 99 13 9 1 -1 10 -4 35 -1 9 -10 -1zm-86 -31l78 10 2 -15 -78 -10 -2 15zm175 -211l-73 -66 -8 -7 7 -7 23 -26 7 -7 7 6 74 67 7 7 -7 7 -23 26 -7 7 -7 -7zm-53 -74l59 53 10 -11 -59 -53 -10 11zm265 -72l-22 -97 -3 -10 10 -2 34 -8 10 -2 2 10 22 97 2 9 -9 2 -35 8 -9 2 -2 -9zm-1 -92l18 78 14 -4 -17 -77 -15 3zm296 119l-32 -13 -10 -4 4 -9 38 -92 3 -9 10 4 32 13 9 4 -4 9 -37 92 -4 9 -9 -4zm-16 -28l14 6 30 -73 -14 -6 -30 73zm204 194l-18 -30 -6 -8 9 -6 83 -53 8 -6 6 9 19 29 5 9 -9 5 -83 54 -8 5 -6 -8zm4 -32l8 12 66 -42 -8 -13 -66 43zm176 245l-1 35 -1 10 -10 0 -98 -4 -10 -1 0 -9 1 -35 1 -10 10 0 98 4 10 0 0 10zm-21 24l1 -15 -79 -3 -1 15 79 3zm-155 211l79 59 8 6 -6 8 -22 28 -6 8 -8 -6 -78 -60 -8 -6 6 -8 21 -28 6 -7 8 6zm59 69l-63 -48 -9 12 63 48 9 -12zm-263 181l-322 0 -10 0 0 -10c0,-55 -5,-106 -18,-157 -13,-50 -35,-101 -70,-155 -29,-46 -44,-95 -48,-144 -3,-54 9,-108 33,-156 24,-48 61,-90 107,-119 41,-27 90,-44 144,-47 7,-1 13,-1 20,-1 80,0 153,31 207,83 54,51 90,121 95,201 0,6 0,13 0,19 0,80 -24,123 -52,172 -35,62 -76,133 -76,304l0 10 -10 0zm-312 -20l302 0c2,-169 43,-241 79,-304 26,-46 49,-87 49,-162 0,-6 0,-12 0,-18 -5,-74 -38,-140 -89,-188 -50,-48 -118,-77 -193,-77 -7,0 -13,0 -19,1 -51,3 -96,19 -134,44 -43,27 -78,66 -100,111 -23,44 -34,95 -31,146 3,46 18,92 45,134 36,56 59,109 73,161 12,50 17,99 18,152zm127 -783c-79,5 -150,39 -203,91 -53,53 -88,123 -94,202 -7,95 25,153 59,214 37,66 76,136 76,259l0 52 372 0 0 -9c0,-78 -1,-197 78,-319 39,-61 54,-127 50,-191 -3,-50 -18,-99 -44,-142 -25,-43 -60,-81 -102,-108 -54,-35 -119,-54 -192,-49zm-217 77c56,-56 132,-92 215,-97 78,-5 148,15 204,52 46,29 83,69 110,115 26,45 43,97 46,151 4,68 -12,138 -54,202 -75,118 -75,234 -74,309l0 0 0 19 0 10 -10 0 -392 0 -10 0 0 -10 0 -62c0,-118 -38,-186 -73,-249 -36,-64 -69,-124 -62,-226 6,-83 43,-158 100,-214z"/>
   <polygon class="fil1 str0" points="1811,2440 2166,2440 2166,2475 1811,2475 "/>
   <polygon class="fil1 str0" points="1811,2532 2166,2532 2166,2567 1811,2567 "/>
   <polygon class="fil1 str0" points="1869,2625 2108,2625 2108,2660 1869,2660 "/>
   <path class="fil2" d="M1982 1748c-13,9 -25,18 -35,28 -28,28 -44,61 -48,98 -4,38 5,80 27,125 16,33 40,68 72,103 155,-139 109,-192 53,-257l0 0c-25,-29 -51,-59 -69,-97zm-75 -11c21,-21 47,-39 77,-54l29 -15 10 31c14,44 43,78 70,109l0 0c79,92 143,166 -79,354l-19 16 -19 -18c-45,-45 -78,-91 -101,-136 -26,-55 -37,-107 -31,-156 5,-50 27,-95 63,-131z"/>
   <polygon class="fil2" points="2027,1862 2027,2340 1963,2340 1963,1862 "/>
  </g>
 </g>
</svg>
