<?xml version="1.0" encoding="UTF-8"?>
<!DOCTYPE svg PUBLIC "-//W3C//DTD SVG 1.1//EN" "http://www.w3.org/Graphics/SVG/1.1/DTD/svg11.dtd">
<!-- Creator: CorelDRAW X7 -->
<svg xmlns="http://www.w3.org/2000/svg" xml:space="preserve" width="40mm" height="40mm" version="1.1" style="shape-rendering:geometricPrecision; text-rendering:geometricPrecision; image-rendering:optimizeQuality; fill-rule:evenodd; clip-rule:evenodd"
viewBox="0 0 4000 4000"
 xmlns:xlink="http://www.w3.org/1999/xlink">
 <defs>
  <style type="text/css">
   <![CDATA[
    .fil0 {fill:#F39314}
    .fil1 {fill:#5B5B5B;fill-rule:nonzero}
   ]]>
  </style>
 </defs>
 <g id="Слой_x0020_1">
  <metadata id="CorelCorpID_0Corel-Layer"/>
  <g id="_1911582678528">
   <path class="fil0" d="M2172 2132c0,179 -145,324 -324,324 -179,0 -324,-145 -324,-324 0,-179 145,-324 324,-324 179,0 324,145 324,324z"/>
   <path class="fil1" d="M2024 1518c-81,157 6,318 86,467 23,41 44,81 63,122 75,165 88,313 -174,432l-101 46 64 -91c117,-166 31,-322 -51,-469 -104,-189 -202,-365 69,-546l97 -64 -53 103zm33 496c-71,-132 -147,-272 -122,-420 -122,129 -49,262 29,402 76,137 155,280 97,439 123,-88 108,-191 57,-303 -17,-38 -39,-78 -61,-118z"/>
   <path class="fil1" d="M1796 2512c0,-39 -5,-80 -16,-124 -11,-44 -28,-92 -52,-143l-9 -20 0 0c-58,-120 -116,-242 -22,-361l32 -39 20 46c19,44 42,86 65,128 28,52 57,105 80,162 25,65 42,134 40,197 -3,68 -29,129 -89,177l-48 39 -1 -62zm43 -138c5,21 9,43 12,63 14,-25 21,-52 22,-81 3,-54 -13,-114 -36,-173 -21,-54 -49,-105 -76,-155 -15,-26 -29,-52 -42,-79 -28,78 14,165 54,250l0 0 10 20c26,55 44,106 56,155z"/>
   <path class="fil1" d="M2236 1674c-2,86 57,176 120,272 20,31 40,62 59,93 32,55 52,113 58,168 7,58 0,113 -23,162 -22,50 -59,92 -111,123 -42,25 -93,42 -155,50l-95 11 72 -64c210,-186 121,-332 39,-465 -78,-126 -149,-242 -15,-372l53 -52 -2 74zm69 305c-50,-77 -99,-152 -119,-228 -35,78 13,157 65,242 83,134 173,280 26,463 11,-5 21,-10 31,-16 41,-24 70,-57 87,-96 18,-38 24,-83 18,-130 -5,-47 -22,-96 -50,-144 -19,-31 -39,-62 -58,-91z"/>
  </g>
 </g>
</svg>
