<?xml version="1.0" encoding="UTF-8"?>
<!DOCTYPE svg PUBLIC "-//W3C//DTD SVG 1.1//EN" "http://www.w3.org/Graphics/SVG/1.1/DTD/svg11.dtd">
<!-- Creator: CorelDRAW X7 -->
<svg xmlns="http://www.w3.org/2000/svg" xml:space="preserve" width="40mm" height="40mm" version="1.1" style="shape-rendering:geometricPrecision; text-rendering:geometricPrecision; image-rendering:optimizeQuality; fill-rule:evenodd; clip-rule:evenodd"
viewBox="0 0 4000 4000"
 xmlns:xlink="http://www.w3.org/1999/xlink">
 <defs>
  <style type="text/css">
   <![CDATA[
    .fil1 {fill:#5B5B5B}
    .fil0 {fill:#F39314}
   ]]>
  </style>
 </defs>
 <g id="Слой_x0020_1">
  <metadata id="CorelCorpID_0Corel-Layer"/>
  <g id="_1912772798208">
   <path class="fil0" d="M2320 2062c0,178 -144,323 -323,323 -179,0 -324,-145 -324,-323 0,-179 145,-324 324,-324 179,0 323,145 323,324z"/>
   <path class="fil1" d="M2195 2028c19,0 34,16 34,34 0,19 -15,35 -34,35l-194 0c-19,0 -34,-16 -34,-35l0 0 0 -306c0,-19 15,-34 34,-34 19,0 34,15 34,34l0 272 160 0zm19 -473c14,6 29,13 44,21 15,8 28,17 42,26 13,9 26,19 38,28l0 0c12,11 25,21 36,33 12,12 23,24 33,36 10,12 19,25 29,39 11,16 32,20 48,9 16,-11 21,-33 10,-49 -10,-14 -21,-29 -33,-44 -12,-15 -25,-28 -37,-41 -13,-12 -27,-25 -41,-37l0 0 0 0c-15,-12 -29,-23 -44,-33 -16,-10 -32,-20 -48,-29 -15,-8 -32,-16 -49,-23 -18,-8 -39,0 -46,18 -8,18 0,39 18,46l0 0zm-650 183c-10,16 -32,20 -48,9 -16,-11 -21,-33 -10,-49 10,-14 21,-29 33,-44 12,-15 25,-28 37,-41 12,-12 26,-24 41,-37 15,-11 29,-23 44,-33 15,-10 31,-20 48,-29l2 0c15,-9 31,-16 48,-23 17,-8 38,0 45,18 8,18 0,39 -18,46 -14,6 -28,13 -42,20l-2 1c-14,8 -28,16 -42,26 -14,9 -27,19 -39,29 -11,9 -23,20 -35,32 -12,12 -23,24 -33,36 -10,12 -19,25 -29,39zm436 -139c-126,0 -240,51 -323,133l0 0 0 0 0 1c-83,82 -134,196 -134,322 0,127 51,241 134,323l0 0c83,83 197,134 323,134 126,0 240,-51 322,-133l1 -1 0 0c83,-82 134,-197 134,-323 0,-125 -51,-238 -132,-321l-2 -2c-83,-82 -197,-133 -323,-133l0 0zm273 183c-70,-70 -166,-113 -273,-113 -107,0 -203,43 -273,113l0 0c-70,70 -113,167 -113,273 0,107 43,204 113,274l0 0 0 0c70,70 166,113 273,113 107,0 203,-43 273,-113 70,-70 114,-167 114,-274 0,-106 -43,-202 -112,-271l-2 -2z"/>
  </g>
 </g>
</svg>
