<?xml version="1.0" encoding="UTF-8"?>
<!DOCTYPE svg PUBLIC "-//W3C//DTD SVG 1.1//EN" "http://www.w3.org/Graphics/SVG/1.1/DTD/svg11.dtd">
<!-- Creator: CorelDRAW X7 -->
<svg xmlns="http://www.w3.org/2000/svg" xml:space="preserve" width="40mm" height="40mm" version="1.1" style="shape-rendering:geometricPrecision; text-rendering:geometricPrecision; image-rendering:optimizeQuality; fill-rule:evenodd; clip-rule:evenodd"
viewBox="0 0 4000 4000"
 xmlns:xlink="http://www.w3.org/1999/xlink">
 <defs>
  <style type="text/css">
   <![CDATA[
    .fil0 {fill:#F39314}
    .fil1 {fill:#5B5B5B;fill-rule:nonzero}
   ]]>
  </style>
 </defs>
 <g id="Слой_x0020_1">
  <metadata id="CorelCorpID_0Corel-Layer"/>
  <path class="fil0" d="M2474 1781c0,179 -145,324 -324,324 -179,0 -324,-145 -324,-324 0,-178 145,-323 324,-323 179,0 324,145 324,323z"/>
  <polygon class="fil1" points="1390,2207 1588,1838 1609,1798 1632,1837 1844,2206 1801,2231 1611,1901 1434,2230 "/>
  <polygon class="fil1" points="1585,1850 1585,1645 1635,1645 1635,1850 "/>
  <path class="fil1" d="M1577 1589c0,10 4,18 10,25l0 0c6,6 15,10 25,10 10,0 18,-4 25,-10l0 0c6,-7 10,-15 10,-25l0 -25 25 0 1 0 245 0 0 50 -225 0c-4,13 -11,25 -21,35l0 0 0 0c-15,15 -37,25 -60,25 -24,0 -45,-10 -60,-25l0 0c-16,-16 -25,-37 -25,-60l50 0zm478 -25l257 0 2 0 25 0 0 25c0,10 3,18 10,25 6,6 15,10 25,10 9,0 18,-4 24,-10l0 0c7,-7 11,-16 11,-25l50 0c0,23 -10,45 -25,60l0 0c-16,15 -37,25 -60,25 -24,0 -45,-10 -61,-25 -9,-10 -17,-22 -21,-35l-237 0 0 -50z"/>
  <path class="fil1" d="M1943 1594l87 0 0 -57 -44 -57 -43 57 0 57zm112 50l-137 0 -25 0 0 -25 0 -91 0 -8 5 -7 67 -89 20 -26 20 26 69 89 6 7 0 8 0 91 0 25 -25 0z"/>
  <path class="fil1" d="M2012 1619l0 64 -50 0 0 -64 50 0zm0 188l0 60 -50 0 0 -60 50 0z"/>
  <path class="fil1" d="M1986 1782c11,0 20,-4 27,-11 6,-6 10,-16 10,-26 0,-10 -4,-19 -10,-26 -7,-7 -16,-11 -27,-11 -10,0 -19,4 -26,11l0 0c-7,7 -11,16 -11,26 0,10 5,20 11,26 7,7 16,11 26,11zm62 25c-16,15 -38,25 -62,25 -24,0 -45,-10 -61,-25 -16,-16 -26,-38 -26,-62 0,-24 10,-46 26,-61l0 0c16,-16 37,-26 61,-26 24,0 46,10 62,26 16,15 25,37 25,61 0,24 -9,46 -25,62z"/>
  <path class="fil1" d="M2023 2233l0 -111 0 -193c0,-10 -4,-19 -10,-26 -7,-6 -16,-11 -27,-11 -10,0 -19,5 -26,11 -6,7 -11,16 -11,26l0 193 0 111 0 50 37 18 37 -18 0 -50zm50 -111l0 111 0 66 0 16 -14 7 -63 29 -10 5 -11 -5 -61 -30 -15 -6 0 -16 0 -66 0 -111 0 -193c0,-24 10,-45 26,-61 16,-16 37,-26 61,-26 24,0 46,10 62,26 16,16 25,37 25,61l0 193z"/>
  <path class="fil1" d="M1913 2459l147 0 0 -14 -74 -71 -73 71 0 14zm172 50l-197 0 -25 0 0 -25 0 -50 0 -10 8 -8 97 -95 17 -17 18 17 99 95 8 8 0 10 0 50 0 25 -25 0z"/>
  <path class="fil1" d="M1853 2224c-6,33 -24,61 -48,82 -25,20 -56,32 -89,32l-196 0c-34,0 -65,-12 -89,-32 -25,-21 -42,-49 -48,-82l-6 -29 30 0 421 0 30 0 -5 29zm-80 43c8,-6 14,-14 19,-22l-349 0c5,8 12,16 20,22 15,13 35,21 57,21l196 0c21,0 41,-8 57,-21z"/>
  <path class="fil1" d="M1747 2573c6,-33 23,-62 48,-82 24,-20 55,-32 88,-32l197 0c33,0 64,12 88,32 25,20 42,49 48,82l6 29 -30 0 -421 0 -30 0 6 -29zm80 -44c-8,7 -15,14 -20,23l349 0c-5,-9 -12,-16 -19,-23 -16,-13 -36,-20 -57,-20l-197 0c-21,0 -41,7 -56,20z"/>
  <polygon class="fil1" points="2155,2207 2353,1838 2374,1798 2396,1837 2609,2206 2566,2231 2376,1901 2199,2230 "/>
  <polygon class="fil1" points="2350,1850 2350,1645 2400,1645 2400,1850 "/>
  <path class="fil1" d="M2617 2224c-6,33 -23,61 -48,82 -24,20 -55,32 -89,32l-196 0c-33,0 -64,-12 -89,-32 -24,-21 -42,-49 -48,-82l-5 -29 30 0 421 0 30 0 -6 29zm-80 43c8,-6 15,-14 20,-22l-349 0c5,8 11,16 19,22 16,13 36,21 57,21l196 0c22,0 42,-8 57,-21z"/>
 </g>
</svg>
