<?xml version="1.0" encoding="UTF-8"?>
<!DOCTYPE svg PUBLIC "-//W3C//DTD SVG 1.1//EN" "http://www.w3.org/Graphics/SVG/1.1/DTD/svg11.dtd">
<!-- Creator: CorelDRAW X7 -->
<svg xmlns="http://www.w3.org/2000/svg" xml:space="preserve" width="40mm" height="40mm" version="1.1" style="shape-rendering:geometricPrecision; text-rendering:geometricPrecision; image-rendering:optimizeQuality; fill-rule:evenodd; clip-rule:evenodd"
viewBox="0 0 4000 4000"
 xmlns:xlink="http://www.w3.org/1999/xlink">
 <defs>
  <style type="text/css">
   <![CDATA[
    .fil1 {fill:#5B5B5B}
    .fil0 {fill:#F39314}
   ]]>
  </style>
 </defs>
 <g id="Слой_x0020_1">
  <metadata id="CorelCorpID_0Corel-Layer"/>
  <g id="_1911582681984">
   <path class="fil0" d="M2616 1734c0,179 -145,324 -324,324 -179,0 -324,-145 -324,-324 0,-179 145,-324 324,-324 179,0 324,145 324,324z"/>
   <path class="fil1" d="M2003 1772l-91 0 0 -100 91 0 0 100zm205 727l227 0 0 -890 -914 0 0 0c-9,0 -17,3 -24,10 -11,13 -10,33 3,44l304 269 -215 219 -152 -136c-13,-12 -33,-11 -45,2 -11,13 -10,33 3,45l87 78 0 359 283 0 19 44c1,3 15,33 45,43 6,2 13,3 20,3 12,0 25,-3 39,-11l18 -9c6,6 14,13 25,17 6,2 14,4 23,4 12,0 27,-3 44,-13l16 -10c7,8 15,14 26,18 6,2 13,4 20,4 12,0 27,-4 43,-14l24 -15c5,5 11,9 18,11 5,1 11,3 17,3 11,0 23,-3 36,-12 13,-8 16,-25 8,-37 -8,-13 -25,-16 -37,-8 -4,3 -7,3 -7,3 -2,-1 -7,-7 -9,-12l-63 -142c-7,-13 -23,-19 -36,-13 -14,6 -20,22 -14,36l57 126 -22 14c-7,5 -13,7 -17,6 -4,-2 -8,-9 -10,-14l-47 -115c-6,-14 -22,-20 -35,-15 -14,6 -21,22 -15,36l38 93 -18 11c-6,3 -15,7 -21,4 -6,-2 -10,-10 -11,-12l-29 -74c-5,-14 -21,-21 -35,-16 -14,5 -21,21 -15,35l20 53 -18 10c-6,4 -12,5 -16,4 -3,-1 -5,-3 -7,-5l-48 -108 -2 -4 0 -1 -94 -210 0 0 -41 41 85 189 -194 0 0 -241 24 22c6,5 14,8 21,8 8,0 16,-4 22,-9l0 0 1 -1 0 -1 1 0 257 -263 1 -1 1 0 0 -1 0 0c11,-13 9,-32 -3,-43l-266 -236 246 0 0 163 215 0 0 -163 307 0 0 766 -133 0 -88 -188 73 20c4,1 41,9 73,-13 14,-10 31,-29 36,-66 0,-2 0,-4 0,-6 3,-12 -2,-24 -13,-30l-255 -137 -1 -1 -3 -1 -3 -1 -1 0 -146 -25 -47 47 179 30 235 127c-3,8 -6,15 -12,18 -10,8 -25,6 -29,6l-118 -33 -14 -28c-7,-13 -23,-18 -37,-12 -13,7 -18,23 -11,37l33 66 1 2 88 188 0 0 29 62z"/>
  </g>
 </g>
</svg>
