<?xml version="1.0" encoding="UTF-8"?>
<!DOCTYPE svg PUBLIC "-//W3C//DTD SVG 1.1//EN" "http://www.w3.org/Graphics/SVG/1.1/DTD/svg11.dtd">
<!-- Creator: CorelDRAW X7 -->
<svg xmlns="http://www.w3.org/2000/svg" xml:space="preserve" width="40mm" height="40mm" version="1.1" style="shape-rendering:geometricPrecision; text-rendering:geometricPrecision; image-rendering:optimizeQuality; fill-rule:evenodd; clip-rule:evenodd"
viewBox="0 0 4000 4000"
 xmlns:xlink="http://www.w3.org/1999/xlink">
 <defs>
  <style type="text/css">
   <![CDATA[
    .fil0 {fill:#F39314}
    .fil1 {fill:#5B5B5B;fill-rule:nonzero}
   ]]>
  </style>
 </defs>
 <g id="Слой_x0020_1">
  <metadata id="CorelCorpID_0Corel-Layer"/>
  <g id="_1911574822656">
   <path class="fil0" d="M2402 1961c0,179 -145,324 -324,324 -179,0 -324,-145 -324,-324 0,-178 145,-323 324,-323 179,0 324,145 324,323z"/>
   <path class="fil1" d="M2543 2085l0 0 0 3 0 4 0 4 -1 0c0,8 0,15 -1,23 -1,8 -2,17 -3,25 -2,9 -4,17 -6,26 -3,9 -5,17 -9,25 -3,8 -6,16 -10,24 -4,8 -9,16 -14,23 -4,7 -10,15 -15,22 -6,7 -12,13 -18,20 -6,7 -13,13 -20,18 -6,6 -13,11 -21,16 -7,5 -14,10 -22,14 -7,4 -15,7 -23,11l0 0c-8,3 -16,6 -25,8 -8,3 -16,5 -25,7l0 0c-9,1 -18,2 -27,3 -9,1 -19,1 -28,1 -17,0 -33,-1 -49,-4 -16,-3 -31,-8 -46,-14 -16,-6 -31,-14 -45,-23l0 0c-15,-9 -29,-20 -42,-31 -13,-12 -25,-24 -37,-37 -31,-38 -53,-81 -76,-125 -8,-15 -16,-31 -24,-47 -4,-7 -8,-14 -12,-22 -5,-10 -11,-21 -18,-32 -7,-12 -14,-23 -22,-35 -8,-11 -17,-23 -27,-33l-1 -1 0 0c-9,-11 -20,-21 -31,-30 -10,-9 -22,-17 -34,-23l0 0c-13,-7 -26,-13 -41,-16 -14,-4 -29,-6 -45,-6 -7,0 -14,0 -20,1 -6,0 -13,1 -19,2 -6,1 -12,3 -18,5 -6,1 -12,4 -17,6 -6,2 -12,5 -17,8 -5,3 -10,6 -15,10 -6,4 -11,7 -15,12 -5,4 -10,8 -14,13 -5,5 -9,10 -13,15 -4,6 -8,11 -11,16 -4,6 -7,11 -10,17 -3,6 -5,11 -8,17 -2,7 -4,13 -6,19 -1,6 -3,12 -4,19l0 0 0 0c-1,7 -2,14 -3,20 0,7 0,14 0,22l0 0 0 3 0 4 0 0c0,7 0,13 1,19 0,6 1,12 2,18 1,7 3,13 4,19 2,7 4,13 6,19 3,6 5,12 8,17 3,6 6,12 10,17 3,6 7,11 11,16l0 0c4,5 8,10 13,15 4,5 9,9 14,14 4,4 9,8 14,11 6,4 11,7 16,10 5,3 11,6 16,8 6,3 12,5 18,7 6,1 12,3 18,4 6,1 12,2 19,3 6,0 13,1 20,1 16,0 31,-2 45,-6 15,-4 28,-10 40,-16 13,-7 25,-15 36,-25 11,-9 22,-19 31,-30 10,-10 19,-22 27,-33 8,-11 15,-23 22,-34 2,-4 4,-8 7,-11l7 14c11,21 22,43 34,64 -8,12 -17,25 -28,37 -12,14 -25,27 -39,40 -13,11 -27,22 -42,31l0 0c-14,9 -29,17 -45,23 -15,6 -30,11 -46,14 -16,3 -32,4 -49,4 -9,0 -19,0 -28,-1 -9,-1 -18,-2 -27,-3l0 0c-9,-2 -17,-4 -25,-7 -9,-2 -17,-5 -25,-8l0 0c-8,-4 -16,-7 -23,-11 -8,-4 -15,-9 -22,-14 -8,-5 -15,-10 -21,-16 -7,-5 -14,-11 -20,-18 -6,-7 -12,-13 -18,-20l0 0c-5,-7 -11,-14 -15,-22 -5,-7 -10,-15 -14,-23 -4,-8 -7,-16 -10,-24 -4,-8 -6,-16 -9,-25 -2,-9 -4,-17 -6,-26 -1,-9 -3,-18 -3,-28 -1,-9 -2,-19 -2,-28l0 0 0 -4 0 -4 0 -4 1 0c0,-7 0,-15 1,-22 1,-9 2,-17 3,-26 2,-8 4,-17 6,-25 2,-9 5,-17 8,-24l0 -1 0 0 1 -1c3,-8 6,-16 10,-24 4,-8 9,-15 14,-23 4,-7 10,-14 15,-21 6,-7 12,-14 18,-21 7,-6 13,-12 20,-18 6,-6 13,-11 21,-16 7,-5 14,-9 22,-13 7,-5 15,-8 23,-12 8,-3 16,-6 25,-8 8,-3 16,-5 25,-6 9,-2 18,-3 27,-4 9,-1 19,-1 28,-1 17,0 33,1 49,4 16,4 32,8 46,14 16,6 31,14 45,23l0 0c5,3 10,6 14,9 71,56 106,125 140,193 29,58 58,116 109,166 8,8 17,17 26,24 11,10 23,18 36,25 12,6 26,12 40,16 14,4 29,6 45,6 7,0 14,-1 20,-1 7,-1 13,-2 19,-3 6,-1 12,-3 18,-4 6,-2 12,-4 18,-7 5,-2 11,-5 16,-8 5,-3 10,-6 15,-10 6,-3 11,-7 15,-11 5,-5 10,-9 14,-14 5,-5 9,-10 13,-15l0 0c4,-5 8,-10 11,-16 4,-5 7,-11 10,-17 3,-5 5,-11 8,-17 2,-6 4,-12 6,-19 1,-6 3,-12 4,-19l0 0 0 0c1,-7 2,-13 3,-20 0,-7 0,-14 0,-21l0 0 0 -4 0 -4 0 0c0,-6 0,-12 -1,-19 0,-6 -1,-12 -2,-18 -1,-7 -3,-13 -4,-19 -2,-6 -4,-12 -6,-19 -3,-6 -5,-11 -8,-17 -3,-6 -6,-11 -9,-17 -4,-5 -8,-10 -12,-16 -4,-5 -8,-10 -13,-15 -4,-5 -9,-9 -14,-13 -4,-5 -9,-8 -14,-12 -5,-4 -11,-7 -16,-10 -5,-3 -11,-6 -16,-8 -6,-2 -12,-5 -18,-6 -6,-2 -12,-4 -18,-5 -6,-1 -12,-2 -19,-2 -6,-1 -13,-1 -20,-1 -16,0 -31,2 -45,6 -14,3 -28,9 -40,16l0 0c-13,6 -25,15 -36,24 -11,9 -22,19 -31,30l0 0c-10,11 -19,22 -27,33 -8,12 -15,23 -22,35 -3,5 -7,11 -10,16l-5 -11c-11,-23 -23,-46 -36,-68 9,-14 19,-28 31,-41 12,-15 25,-28 39,-41 13,-11 27,-22 42,-31l0 0c14,-9 29,-17 45,-23 15,-6 30,-10 46,-14 16,-3 32,-4 49,-4 9,0 19,0 28,1 9,1 18,2 27,4 9,1 17,3 26,6 8,2 16,5 24,8 8,4 16,7 23,12 8,4 15,8 22,13 8,5 15,10 21,16 7,6 14,12 20,18 6,7 12,14 18,21 5,7 11,14 15,21 5,8 10,15 14,23 4,8 7,16 10,24l1 1 0 0 0 1c3,7 6,15 8,24 2,8 4,17 6,26 1,9 3,18 3,27 1,9 2,19 2,29z"/>
  </g>
 </g>
</svg>
