<?xml version="1.0" encoding="UTF-8"?>
<!DOCTYPE svg PUBLIC "-//W3C//DTD SVG 1.1//EN" "http://www.w3.org/Graphics/SVG/1.1/DTD/svg11.dtd">
<!-- Creator: CorelDRAW X7 -->
<svg xmlns="http://www.w3.org/2000/svg" xml:space="preserve" width="36.336mm" height="36.336mm" version="1.1" style="shape-rendering:geometricPrecision; text-rendering:geometricPrecision; image-rendering:optimizeQuality; fill-rule:evenodd; clip-rule:evenodd"
viewBox="0 0 3634 3634"
 xmlns:xlink="http://www.w3.org/1999/xlink">
 <defs>
  <style type="text/css">
   <![CDATA[
    .fil0 {fill:#F39314}
    .fil1 {fill:#5B5B5B;fill-rule:nonzero}
   ]]>
  </style>
 </defs>
 <g id="Слой_x0020_1">
  <metadata id="CorelCorpID_0Corel-Layer"/>
  <path class="fil0" d="M2562 1730c0,178 -145,323 -324,323 -179,0 -323,-145 -323,-323 0,-179 144,-324 323,-324 179,0 324,145 324,324z"/>
  <path class="fil1" d="M2044 2179c93,0 178,-38 239,-99 61,-61 99,-146 99,-239 0,-93 -38,-178 -99,-239 -61,-61 -146,-99 -239,-99 -78,0 -150,27 -207,71 -9,-13 -19,-25 -29,-37 65,-51 147,-81 236,-81 106,0 202,43 272,113 70,69 113,166 113,272 0,106 -43,203 -113,272 -70,70 -166,113 -272,113 -91,0 -174,-31 -240,-83 11,-12 21,-24 30,-37 57,46 130,73 210,73z"/>
  <path class="fil1" d="M2044 2132c80,0 153,-33 205,-85 53,-53 86,-126 86,-206 0,-80 -33,-153 -86,-206 -52,-52 -125,-85 -205,-85 -69,0 -132,24 -182,64 -4,-7 -8,-13 -12,-20 53,-42 120,-67 194,-67 87,0 165,35 222,92 57,57 92,135 92,222 0,87 -35,166 -92,222 -57,57 -135,93 -222,93 -75,0 -143,-26 -197,-70 4,-6 8,-13 12,-20 50,41 115,66 185,66z"/>
  <path class="fil1" d="M2014 2010c-1,-10 -2,-36 -2,-65l161 0 0 -33 -162 0c0,-8 0,-15 0,-22 6,1 13,2 28,2 59,0 133,-27 133,-115 0,-63 -39,-103 -120,-103 -32,0 -72,3 -93,6 4,28 4,74 4,140l0 24c0,23 0,46 0,68l-25 0 0 33 24 0c0,28 -1,50 -3,65l55 0zm110 -228c0,32 -16,57 -32,68 -13,8 -35,10 -51,10 -14,0 -23,-1 -30,-4l0 -147c5,-1 21,-2 38,-2 48,0 75,28 75,75z"/>
  <path class="fil1" d="M1458 2179c94,0 178,-38 239,-99 61,-61 99,-146 99,-239 0,-93 -38,-178 -99,-239 -61,-61 -145,-99 -239,-99 -93,0 -178,38 -239,99 -61,61 -99,146 -99,239 0,93 38,178 99,239 61,61 146,99 239,99zm273 -66c-70,70 -166,113 -273,113 -106,0 -202,-43 -272,-113 -70,-69 -113,-166 -113,-272 0,-106 43,-203 113,-272 70,-70 166,-113 272,-113 107,0 203,43 273,113 69,69 112,166 112,272 0,106 -43,203 -112,272z"/>
  <path class="fil1" d="M1458 2132c81,0 153,-33 206,-85 53,-53 85,-126 85,-206 0,-80 -32,-153 -85,-206 -53,-52 -125,-85 -206,-85 -80,0 -153,33 -205,85 -53,53 -86,126 -86,206 0,80 33,153 86,206 52,52 125,85 205,85zm223 -69c-57,57 -136,93 -223,93 -87,0 -165,-36 -222,-93 -57,-56 -92,-135 -92,-222 0,-87 35,-165 92,-222 57,-57 135,-92 222,-92 87,0 166,35 223,92 56,57 92,135 92,222 0,87 -36,166 -92,222z"/>
  <path class="fil1" d="M1428 2010c-1,-10 -2,-36 -2,-65l162 0 0 -33 -162 0c0,-8 0,-15 0,-22 6,1 12,2 28,2 59,0 133,-27 133,-115 0,-63 -39,-103 -120,-103 -33,0 -72,3 -94,6 4,28 4,74 4,140l0 24c0,23 0,46 0,68l-24 0 0 33 24 0c-1,28 -2,50 -4,65l55 0zm111 -228c0,32 -16,57 -32,68 -13,8 -36,10 -52,10 -13,0 -23,-1 -29,-4l0 -147c5,-1 20,-2 37,-2 48,0 76,28 76,75z"/>
 </g>
</svg>
