<?xml version="1.0" encoding="UTF-8"?>
<!DOCTYPE svg PUBLIC "-//W3C//DTD SVG 1.1//EN" "http://www.w3.org/Graphics/SVG/1.1/DTD/svg11.dtd">
<!-- Creator: CorelDRAW X7 -->
<svg xmlns="http://www.w3.org/2000/svg" xml:space="preserve" width="36.336mm" height="36.336mm" version="1.1" style="shape-rendering:geometricPrecision; text-rendering:geometricPrecision; image-rendering:optimizeQuality; fill-rule:evenodd; clip-rule:evenodd"
viewBox="0 0 3634 3634"
 xmlns:xlink="http://www.w3.org/1999/xlink">
 <defs>
  <style type="text/css">
   <![CDATA[
    .fil0 {fill:#F39314}
    .fil1 {fill:#5B5B5B;fill-rule:nonzero}
   ]]>
  </style>
 </defs>
 <g id="Слой_x0020_1">
  <metadata id="CorelCorpID_0Corel-Layer"/>
  <path class="fil0" d="M1775 1705c0,179 -145,324 -324,324 -179,0 -324,-145 -324,-324 0,-179 145,-324 324,-324 179,0 324,145 324,324z"/>
  <path class="fil1" d="M2139 2156c41,0 81,-9 117,-24 37,-15 71,-38 99,-66l0 0c29,-28 51,-62 67,-100 15,-36 23,-75 23,-117 0,-41 -8,-81 -23,-117 -16,-37 -38,-71 -67,-99 -28,-28 -62,-51 -99,-67 -36,-15 -76,-23 -117,-23 -42,0 -81,8 -117,23 -25,10 -47,23 -68,39 -12,-17 -26,-33 -40,-48 25,-19 54,-36 84,-48 43,-18 91,-28 141,-28 50,0 97,10 141,28 45,18 86,46 120,80l0 0 0 0c34,34 61,74 80,119 18,44 28,91 28,141 0,50 -10,98 -28,141 -19,45 -46,86 -80,120l0 0 0 0c-34,34 -75,61 -120,80 -44,18 -91,28 -141,28 -50,0 -98,-10 -141,-28 -25,-10 -49,-23 -70,-39 13,-15 26,-32 38,-49 17,12 36,22 56,30 36,15 75,24 117,24zm26 -327l133 0 0 62 -133 0 -62 0 0 -62 0 -211 62 0 0 211z"/>
  <path class="fil1" d="M1566 2204c93,0 178,-38 239,-99 61,-61 99,-146 99,-239 0,-93 -38,-178 -99,-239 -61,-61 -146,-99 -239,-99 -93,0 -178,38 -239,99 -61,61 -99,146 -99,239 0,93 38,178 99,239 61,61 146,99 239,99zm272 -66c-69,70 -166,113 -272,113 -106,0 -203,-43 -272,-113 -70,-69 -113,-166 -113,-272 0,-107 43,-203 113,-273 69,-69 166,-112 272,-112 106,0 203,43 272,112 70,70 113,166 113,273 0,106 -43,203 -113,272z"/>
  <path class="fil1" d="M1566 2157c80,0 153,-33 206,-86 52,-52 85,-125 85,-205 0,-80 -33,-153 -85,-206 -53,-52 -126,-85 -206,-85 -80,0 -153,33 -206,85 -52,53 -85,126 -85,206 0,80 33,153 85,205 53,53 126,86 206,86zm222 -69c-57,57 -135,92 -222,92 -87,0 -166,-35 -222,-92 -57,-57 -92,-135 -92,-222 0,-87 35,-166 92,-222 56,-57 135,-93 222,-93 87,0 165,36 222,93 57,56 92,135 92,222 0,87 -35,165 -92,222z"/>
  <path class="fil1" d="M1536 2034c-1,-9 -2,-36 -2,-64l161 0 0 -34 -162 0c0,-7 0,-14 0,-21 6,1 13,2 28,2 60,0 134,-28 134,-116 0,-62 -40,-102 -121,-102 -32,0 -72,3 -93,6 4,28 4,73 4,139l0 24c0,24 0,47 0,68l-25 0 0 34 24 0c0,27 -1,50 -3,64l55 0zm111 -227c0,32 -17,56 -32,68 -14,7 -36,10 -52,10 -14,0 -23,-2 -30,-4l0 -147c5,-1 21,-2 38,-2 48,0 76,27 76,75z"/>
 </g>
</svg>
