<?xml version="1.0" encoding="UTF-8"?>
<!DOCTYPE svg PUBLIC "-//W3C//DTD SVG 1.1//EN" "http://www.w3.org/Graphics/SVG/1.1/DTD/svg11.dtd">
<!-- Creator: CorelDRAW X7 -->
<svg xmlns="http://www.w3.org/2000/svg" xml:space="preserve" width="36.336mm" height="36.336mm" version="1.1" style="shape-rendering:geometricPrecision; text-rendering:geometricPrecision; image-rendering:optimizeQuality; fill-rule:evenodd; clip-rule:evenodd"
viewBox="0 0 3634 3634"
 xmlns:xlink="http://www.w3.org/1999/xlink">
 <defs>
  <style type="text/css">
   <![CDATA[
    .fil0 {fill:#F39314}
    .fil1 {fill:#5B5B5B;fill-rule:nonzero}
   ]]>
  </style>
 </defs>
 <g id="Слой_x0020_1">
  <metadata id="CorelCorpID_0Corel-Layer"/>
  <path class="fil0" d="M1945 1695c0,179 -145,324 -324,324 -179,0 -324,-145 -324,-324 0,-178 145,-323 324,-323 179,0 324,145 324,323z"/>
  <path class="fil1" d="M2267 2137c0,34 -13,65 -36,87l0 0c-22,23 -53,36 -87,36 -34,0 -65,-13 -87,-36 -1,0 -1,-1 -2,-1 -16,-17 -27,-38 -32,-61l-143 0c-13,0 -25,-11 -25,-25 0,-14 12,-25 25,-25l143 0c5,-24 17,-45 34,-62l0 0 0 0 0 -1c23,-22 53,-35 87,-35 34,0 65,13 87,36 23,22 36,53 36,87zm-752 61c84,0 161,-34 216,-89 56,-56 90,-132 90,-217 0,-84 -34,-161 -90,-216 -55,-56 -132,-90 -216,-90 -84,0 -161,34 -216,90 -56,55 -90,132 -90,216 0,85 34,161 90,217 55,55 132,89 216,89zm247 -59c-64,63 -151,102 -247,102 -96,0 -183,-39 -247,-102 -63,-63 -102,-151 -102,-247 0,-96 39,-183 102,-246 64,-63 151,-102 247,-102 96,0 183,39 247,102 63,63 102,150 102,246 0,96 -39,184 -102,247zm-247 16c73,0 139,-29 186,-77 48,-47 77,-113 77,-186 0,-72 -29,-138 -77,-186 -47,-48 -113,-77 -186,-77 -73,0 -139,29 -186,77 -48,48 -77,114 -77,186 0,73 29,139 77,186 47,48 113,77 186,77zm201 -62c-51,52 -122,84 -201,84 -79,0 -150,-32 -201,-84 -52,-51 -84,-122 -84,-201 0,-78 32,-150 84,-201 51,-52 122,-83 201,-83 79,0 150,31 201,83 52,51 84,123 84,201 0,79 -32,150 -84,201zm-228 -48c-1,-9 -2,-33 -2,-59l146 0 0 -30 -146 0c0,-7 0,-13 0,-19 5,1 11,1 25,1 53,0 120,-24 120,-104 0,-56 -35,-93 -108,-93 -30,0 -66,3 -85,6 4,25 4,66 4,126l0 21c0,22 0,43 0,62l-23 0 0 30 22 0c0,25 -1,46 -3,59l50 0zm100 -206c0,29 -15,51 -29,61 -12,7 -32,9 -47,9 -12,0 -21,-1 -26,-3l0 -133c4,-1 18,-2 34,-2 43,0 68,25 68,68zm741 323c-14,0 -25,-11 -25,-25 0,-14 11,-25 25,-25l49 0c11,0 21,-5 29,-12 7,-7 12,-17 12,-29l0 -82c0,-27 -3,-45 -9,-61 -6,-17 -18,-33 -35,-54l-1 -1 -174 -194 0 -1 -1 0c-14,-18 -33,-32 -53,-42 -21,-10 -44,-15 -67,-15l-209 0c-14,0 -25,-12 -25,-25 0,-14 11,-25 25,-25l209 0c31,0 61,7 88,20 27,13 52,32 71,56l0 0 173 193c1,1 2,1 3,2 20,26 34,45 42,68 9,23 13,46 13,79l0 82c0,25 -11,48 -27,65 -16,16 -39,26 -64,26l-49 0zm-288 -475c0,-14 11,-25 25,-25 13,0 25,11 25,25l0 106c0,6 2,12 7,17l0 0c4,4 10,7 17,7l135 0c14,0 25,11 25,25 0,14 -11,25 -25,25l-135 0c-20,0 -39,-8 -52,-22l-1 0 0 0 0 0c-13,-14 -21,-32 -21,-52l0 -106zm155 502c13,-13 21,-32 21,-52 0,-20 -8,-39 -21,-52 -13,-13 -32,-21 -52,-21 -20,0 -39,8 -52,21l0 0c-13,13 -21,32 -21,52 0,20 7,38 20,51l1 1c13,13 32,21 52,21 20,0 39,-8 52,-21l0 0 0 0z"/>
 </g>
</svg>
