<?xml version="1.0" encoding="UTF-8"?>
<!DOCTYPE svg PUBLIC "-//W3C//DTD SVG 1.1//EN" "http://www.w3.org/Graphics/SVG/1.1/DTD/svg11.dtd">
<!-- Creator: CorelDRAW X7 -->
<svg xmlns="http://www.w3.org/2000/svg" xml:space="preserve" width="36.336mm" height="36.336mm" version="1.1" style="shape-rendering:geometricPrecision; text-rendering:geometricPrecision; image-rendering:optimizeQuality; fill-rule:evenodd; clip-rule:evenodd"
viewBox="0 0 3634 3634"
 xmlns:xlink="http://www.w3.org/1999/xlink">
 <defs>
  <style type="text/css">
   <![CDATA[
    .fil1 {fill:#5B5B5B}
    .fil0 {fill:#F39314}
    .fil2 {fill:#5B5B5B;fill-rule:nonzero}
   ]]>
  </style>
 </defs>
 <g id="Слой_x0020_1">
  <metadata id="CorelCorpID_0Corel-Layer"/>
  <path class="fil0" d="M1833 1684c0,179 -145,324 -324,324 -179,0 -324,-145 -324,-324 0,-179 145,-324 324,-324 179,0 324,145 324,324z"/>
  <path class="fil1" d="M1515 1562l116 60 0 116 49 26 0 -116 122 64 0 377 -287 -179 0 -348zm436 -102l-293 121 -107 -56 293 -108 107 43zm-123 210l-113 -59 301 -125 126 51 -314 133zm23 422l0 -379 331 -140 0 84 49 0 0 -137 -386 -155 -379 139 0 434 360 223 118 -63c-4,-17 -6,-35 -6,-53l-87 47z"/>
  <path class="fil2" d="M1517 1558l116 61 3 1 0 2 0 113 40 22 0 -109 0 -7 6 3 122 64 3 1 0 3 0 377 0 7 -7 -4 -287 -178 -2 -1 0 -3 0 -348 0 -7 6 3zm110 67l-108 -56 0 339 279 173 0 -367 -113 -59 0 110 0 7 -7 -4 -49 -26 -2 -2 0 -2 0 -113zm326 -161l-293 121 -2 1 -2 -1 -107 -56 -9 -4 9 -4 294 -108 1 0 2 0 107 43 10 4 -10 4zm-294 113l281 -117 -96 -38 -282 104 97 51zm167 96l-113 -58 -8 -4 8 -4 302 -125 1 0 2 0 126 51 9 4 -9 4 -315 133 -2 0 -1 -1zm-101 -62l103 54 303 -128 -115 -46 -291 120zm122 481l0 -379 0 -3 3 -1 330 -140 6 -2 0 6 0 80 41 0 0 -130 -382 -154 -374 138 0 428 356 221 112 -61c-2,-7 -3,-15 -4,-23 0,-6 -1,-13 -1,-20l-81 44 -6 3 0 -7zm9 -376l0 369 80 -44 6 -3 0 7c0,9 1,18 2,27 1,8 2,17 4,25l1 3 -3 1 -117 64 -3 1 -2 -1 -360 -224 -2 -1 0 -2 0 -434 0 -3 3 -1 379 -139 1 -1 2 1 385 155 3 1 0 3 0 137 0 5 -4 0 -49 0 -4 0 0 -5 0 -77 -322 136z"/>
  <path class="fil1" d="M2217 2219c-99,0 -180,-81 -180,-180 0,-99 81,-179 180,-179 99,0 180,80 180,179 0,99 -81,180 -180,180zm162 -341l26 -31c9,-10 7,-26 -3,-35 -10,-8 -26,-7 -34,3l-27 32c-36,-23 -79,-36 -124,-36 -126,0 -229,102 -229,228 0,126 103,229 229,229 126,0 229,-103 229,-229 0,-63 -26,-119 -67,-161z"/>
  <g>
   <path class="fil2" d="M2217 2223c-51,0 -97,-21 -130,-54l0 0c-33,-33 -54,-79 -54,-130 0,-50 21,-96 54,-130 33,-33 79,-54 130,-54 51,0 97,21 130,54 33,34 54,80 54,130l0 0c0,51 -21,97 -54,130 -33,33 -79,54 -130,54l0 0 0 0zm-124 -60c32,32 75,51 124,51l0 0 0 0c48,0 92,-19 124,-51 32,-32 51,-75 51,-124l0 0c0,-48 -19,-92 -51,-124 -32,-31 -76,-51 -124,-51 -49,0 -92,20 -124,51 -32,32 -51,76 -51,124 0,49 19,92 51,124l0 0zm282 -288l27 -31c3,-4 5,-9 4,-15 0,-5 -2,-10 -7,-13l0 0 0 0c-4,-4 -9,-5 -14,-5 -6,1 -11,3 -14,7l0 0 -27 32 -2 3 -4 -2c-18,-11 -37,-21 -58,-27 -20,-6 -41,-9 -63,-9l0 0c-62,0 -118,25 -159,66 -40,40 -65,96 -65,158l0 0c0,62 25,118 65,159 41,40 97,65 159,65 62,0 118,-25 158,-65 41,-41 66,-97 66,-159 0,-30 -6,-59 -17,-85 -11,-27 -28,-52 -48,-73l-3 -3 2 -3zm33 -25l-23 28c20,21 36,45 47,73 12,27 18,57 18,88 0,64 -26,123 -69,165 -42,42 -100,68 -164,68 -64,0 -123,-26 -165,-68l0 0c-42,-42 -68,-101 -68,-165l0 0c0,-64 26,-122 68,-164l0 0c42,-42 101,-69 165,-69l0 0c23,0 45,4 65,10 21,6 40,15 58,26l24 -29 0 0c5,-6 13,-10 20,-11 7,0 15,2 21,7l0 0 0 0 0 0c6,5 9,12 10,20 1,7 -2,15 -7,21zm-44 -37l0 0 0 0zm7 5l0 0 0 0z"/>
  </g>
  <polygon class="fil1" points="2148,1703 2148,1752 2148,1752 2148,1781 2197,1781 2197,1752 2241,1752 2241,1783 2290,1783 2290,1725 2290,1725 2290,1703 "/>
  <path class="fil2" d="M2152 1707l0 40 0 0 0 5 0 25 41 0 0 -25 0 -5 4 0 44 0 4 0 0 5 0 26 41 0 0 -49 0 0 0 -4 0 -18 -134 0zm-9 45l0 -49 0 -5 5 0 142 0 4 0 0 5 0 17 0 0 0 5 0 58 0 4 -4 0 -49 0 -4 0 0 -4 0 -27 -36 0 0 25 0 4 -4 0 -49 0 -4 0 0 -4 0 -25 -1 0 0 -4z"/>
  <path class="fil1" d="M2217 1902l-2 0 0 42 2 -1c53,0 96,43 96,96 0,53 -43,96 -96,96 -15,0 -29,-4 -42,-10l-44 22c24,19 54,30 86,30 76,0 138,-62 138,-138 0,-76 -62,-137 -138,-137z"/>
  <path class="fil2" d="M2215 1897l2 0 0 0c39,0 75,16 100,42 26,26 42,61 42,100 0,39 -16,75 -42,101 -25,25 -61,41 -100,41 -16,0 -32,-2 -47,-8 -15,-5 -29,-13 -41,-22l-6 -5 6 -3 44 -22 2 0 2 0c6,3 13,6 19,7 7,2 14,3 21,3 25,0 48,-11 65,-27 16,-17 26,-40 26,-65 0,-25 -10,-48 -26,-64 -17,-17 -40,-27 -65,-27l-1 0 -5 0 0 -4 0 -42 0 -5 4 0zm5 9l0 33c26,1 50,12 68,29 18,19 29,44 29,71 0,28 -11,53 -29,71 -18,18 -44,29 -71,29 -8,0 -15,-1 -23,-2 -6,-2 -13,-4 -19,-7l-35 18c10,7 21,13 33,17 14,5 28,8 44,8 37,0 70,-15 94,-39 24,-25 39,-58 39,-95 0,-37 -15,-70 -39,-94 -23,-24 -56,-38 -91,-39z"/>
  <path class="fil1" d="M2217 2079c22,0 40,-18 40,-40 0,-22 -18,-40 -40,-40 -21,0 -38,17 -40,37l-79 80 4 6 99 -46c4,2 10,3 16,3z"/>
  <path class="fil2" d="M2217 2075c10,0 19,-4 25,-11 6,-6 10,-15 10,-25l0 0c0,-10 -4,-19 -10,-25 -6,-6 -15,-10 -25,-10l0 0 0 0c-10,0 -18,3 -24,9l0 0c-7,6 -11,14 -12,24l0 1 -1 1 -77 78 0 0 96 -45 1 -1 2 1c3,1 5,2 7,2 3,1 5,1 8,1zm31 -5c-8,8 -19,13 -31,13 -3,0 -6,0 -9,-1 -3,0 -5,-1 -7,-2l-97 46 -4 2 -2 -3 -4 -6 -2 -3 3 -3 78 -78c1,-11 6,-21 14,-28l0 0c8,-7 18,-12 30,-12l0 0 0 0c12,0 23,5 31,13 8,8 13,19 13,31l0 0c0,12 -5,23 -13,31z"/>
 </g>
</svg>
