<?xml version="1.0" encoding="UTF-8"?>
<!DOCTYPE svg PUBLIC "-//W3C//DTD SVG 1.1//EN" "http://www.w3.org/Graphics/SVG/1.1/DTD/svg11.dtd">
<!-- Creator: CorelDRAW X7 -->
<svg xmlns="http://www.w3.org/2000/svg" xml:space="preserve" width="36.336mm" height="36.336mm" version="1.1" style="shape-rendering:geometricPrecision; text-rendering:geometricPrecision; image-rendering:optimizeQuality; fill-rule:evenodd; clip-rule:evenodd"
viewBox="0 0 3634 3634"
 xmlns:xlink="http://www.w3.org/1999/xlink">
 <defs>
  <style type="text/css">
   <![CDATA[
    .fil1 {fill:#5B5B5B}
    .fil0 {fill:#F39314}
   ]]>
  </style>
 </defs>
 <g id="Слой_x0020_1">
  <metadata id="CorelCorpID_0Corel-Layer"/>
  <path class="fil0" d="M2423 1819c0,179 -145,324 -324,324 -179,0 -324,-145 -324,-324 0,-178 145,-323 324,-323 179,0 324,145 324,323z"/>
  <path class="fil1" d="M1990 1909l-515 0 0 -515 173 0 0 166 168 0 0 -166 174 0 0 515zm-285 -515l54 0 0 109 -54 0 0 -109zm-287 -57l0 629 628 0 0 -629 -628 0z"/>
  <path class="fil1" d="M1355 2118c-22,0 -39,18 -39,40 0,21 17,39 39,39 22,0 39,-18 39,-39 0,-22 -17,-40 -39,-40z"/>
  <path class="fil1" d="M1732 2118c-22,0 -39,18 -39,40 0,21 17,39 39,39 22,0 39,-18 39,-39 0,-22 -17,-40 -39,-40z"/>
  <path class="fil1" d="M1921 2118c-22,0 -40,18 -40,40 0,21 18,39 40,39 21,0 39,-18 39,-39 0,-22 -18,-40 -39,-40z"/>
  <path class="fil1" d="M1544 2118c-22,0 -40,18 -40,40 0,21 18,39 40,39 21,0 39,-18 39,-39 0,-22 -18,-40 -39,-40z"/>
  <path class="fil1" d="M2109 2118c-22,0 -39,18 -39,40 0,21 17,39 39,39 22,0 39,-18 39,-39 0,-22 -17,-40 -39,-40z"/>
  <path class="fil1" d="M1338 2077c-38,0 -69,31 -69,69l0 23c0,38 31,69 69,69l788 0c38,0 69,-31 69,-69l0 -23c0,-38 -31,-69 -69,-69l-788 0zm788 218l-788 0c-69,0 -126,-56 -126,-126l0 -23c0,-70 57,-126 126,-126l788 0c70,0 126,56 126,126l0 23c0,70 -56,126 -126,126z"/>
 </g>
</svg>
