<?xml version="1.0" encoding="UTF-8"?>
<!DOCTYPE svg PUBLIC "-//W3C//DTD SVG 1.1//EN" "http://www.w3.org/Graphics/SVG/1.1/DTD/svg11.dtd">
<!-- Creator: CorelDRAW X7 -->
<svg xmlns="http://www.w3.org/2000/svg" xml:space="preserve" width="30mm" height="30mm" version="1.1" style="shape-rendering:geometricPrecision; text-rendering:geometricPrecision; image-rendering:optimizeQuality; fill-rule:evenodd; clip-rule:evenodd"
viewBox="0 0 3000 3000"
 xmlns:xlink="http://www.w3.org/1999/xlink">
 <defs>
  <style type="text/css">
   <![CDATA[
    .fil1 {fill:#5B5B5B}
    .fil0 {fill:#F39314}
   ]]>
  </style>
 </defs>
 <g id="Слой_x0020_1">
  <metadata id="CorelCorpID_0Corel-Layer"/>
  <g id="_2355935352512">
   <path class="fil0" d="M2062 1437c0,179 -145,324 -323,324 -179,0 -324,-145 -324,-324 0,-179 145,-324 324,-324 178,0 323,145 323,324z"/>
   <path class="fil1" d="M1800 1301c-123,-145 -382,-147 -393,-147l-262 0c-16,0 -29,13 -29,29l-1 55 -117 -127 118 -125 0 58c0,16 13,29 29,29l264 0c2,0 227,-10 347,116 38,40 61,91 70,150 -7,-13 -16,-26 -26,-38zm-777 189l107 56 0 110 58 31 0 -111 113 59 0 365 -278 -172 0 -338zm426 -107l-281 117 -102 -54 281 -103 102 40zm-118 202l-95 -50 290 -120 107 42 -302 128zm467 -436c-138,-146 -382,-135 -391,-135l-233 0 0 -53c0,-20 -11,-36 -28,-44 -19,-8 -42,-3 -56,11l-136 145c-11,10 -16,24 -16,38 0,14 5,28 15,37l137 148c8,9 21,14 34,14 7,0 15,-2 21,-4 18,-8 29,-23 29,-41l0 -53 233 0c3,0 243,3 348,127 42,50 57,114 45,190 -3,14 -6,26 -12,37 -12,21 -27,42 -48,63 -5,5 -11,11 -17,17 -37,32 -87,60 -154,78 -15,4 -24,20 -20,36 3,13 15,22 28,22 2,0 5,-1 8,-1 37,-10 68,-22 95,-36l0 86 -321 173 0 -368 321 -135 0 117c22,-15 44,-34 59,-55l0 -126 -391 -157 -383 141 0 440 364 226 410 -222 0 -158c3,-2 6,-5 9,-7 5,-4 10,-7 12,-9 36,-33 64,-64 85,-109 36,-72 41,-124 41,-125 14,-128 -16,-232 -88,-308z"/>
  </g>
 </g>
</svg>
