<?xml version="1.0" encoding="UTF-8"?>
<!DOCTYPE svg PUBLIC "-//W3C//DTD SVG 1.1//EN" "http://www.w3.org/Graphics/SVG/1.1/DTD/svg11.dtd">
<!-- Creator: CorelDRAW X7 -->
<svg xmlns="http://www.w3.org/2000/svg" xml:space="preserve" width="30mm" height="30mm" version="1.1" style="shape-rendering:geometricPrecision; text-rendering:geometricPrecision; image-rendering:optimizeQuality; fill-rule:evenodd; clip-rule:evenodd"
viewBox="0 0 3000 3000"
 xmlns:xlink="http://www.w3.org/1999/xlink">
 <defs>
  <style type="text/css">
   <![CDATA[
    .fil1 {fill:#5B5B5B}
    .fil0 {fill:#F39314}
   ]]>
  </style>
 </defs>
 <g id="Слой_x0020_1">
  <metadata id="CorelCorpID_0Corel-Layer"/>
  <g id="_2355935344096">
   <path class="fil0" d="M1562 1224c0,179 -145,324 -324,324 -178,0 -323,-145 -323,-324 0,-179 145,-324 323,-324 179,0 324,145 324,324z"/>
   <path class="fil1" d="M947 1717c8,-3 17,-2 25,2l340 165 4 2 -2 4c-5,8 -8,16 -11,25 -3,9 -5,18 -7,27l-1 6 -5 -3 -346 -168 -1 0c-8,-4 -13,-11 -16,-19l0 0c-3,-7 -2,-16 1,-23l0 0 0 -1c4,-8 11,-14 19,-17zm518 186c-17,0 -32,7 -44,17 -11,10 -19,25 -21,41l0 0 0 0c-3,18 3,35 13,49 10,13 26,22 44,24l0 0 0 0 0 0 0 0c18,3 35,-3 49,-13 13,-11 22,-26 24,-44l0 0 0 0c2,-18 -3,-35 -13,-48 -11,-14 -26,-23 -44,-25 -2,0 -3,0 -4,-1l0 0c-2,0 -3,0 -4,0zm0 197c-3,0 -5,0 -8,-1 -3,0 -5,0 -8,0l0 0 0 0c-36,-5 -66,-23 -87,-49 -21,-27 -31,-61 -27,-96l0 0 0 -1c4,-35 23,-66 49,-86 26,-21 60,-32 96,-28l1 0c35,5 66,23 87,50 20,26 31,60 26,96 -3,33 -19,61 -43,82 -23,20 -53,33 -86,33zm-152 -705l45 22 52 -111 -46 -21 -51 110zm-423 240l248 -525 2 -4 4 2 538 254 4 2 -2 4 -203 429 -1 2 -3 0 -3 0 0 0c-3,0 -6,-1 -9,-1l0 0c-9,0 -18,1 -26,2 -9,2 -18,4 -26,7l-9 3 4 -9 192 -406 -131 -62 -77 166 -2 4 -4 -2 -155 -72 -4 -2 2 -4 77 -167 -135 -64 -197 416 420 198 8 4 -8 4c-10,4 -19,10 -28,16l0 0c-8,6 -16,13 -24,20l-2 3 -3 -2 -445 -210 -4 -2 2 -4zm1157 -325l0 0 0 -1 0 -40 -127 1 -1 0 0 1 1 40 127 -1zm0 -41l0 0 0 0 0 0zm46 -46c11,12 19,28 19,46l0 41c0,8 -2,17 -5,24 -3,8 -8,15 -14,21 -6,7 -13,11 -20,15 -8,3 -16,5 -25,5l-128 1 0 0 -1 0c-15,0 -29,-6 -40,-15 -11,-8 -18,-20 -22,-33l-40 2 -238 505 -2 5 -5 -3c-7,-6 -14,-11 -22,-16 -8,-4 -17,-8 -25,-12l-5 -1 2 -4 251 -534 1 -2 3 0 78 -5c1,-7 2,-13 5,-19 3,-7 7,-14 13,-19 6,-6 13,-11 21,-14 7,-4 16,-6 24,-6l0 0 129 -1 0 0c18,0 34,8 46,19z"/>
  </g>
 </g>
</svg>
