<?xml version="1.0" encoding="UTF-8"?>
<!DOCTYPE svg PUBLIC "-//W3C//DTD SVG 1.1//EN" "http://www.w3.org/Graphics/SVG/1.1/DTD/svg11.dtd">
<!-- Creator: CorelDRAW X7 -->
<svg xmlns="http://www.w3.org/2000/svg" xml:space="preserve" width="30mm" height="30mm" version="1.1" style="shape-rendering:geometricPrecision; text-rendering:geometricPrecision; image-rendering:optimizeQuality; fill-rule:evenodd; clip-rule:evenodd"
viewBox="0 0 3000 3000"
 xmlns:xlink="http://www.w3.org/1999/xlink">
 <defs>
  <style type="text/css">
   <![CDATA[
    .fil1 {fill:#5B5B5B}
    .fil0 {fill:#F39314}
   ]]>
  </style>
 </defs>
 <g id="Слой_x0020_1">
  <metadata id="CorelCorpID_0Corel-Layer"/>
  <g id="_2357193200496">
   <path class="fil0" d="M1692 1554c0,178 -145,323 -324,323 -179,0 -324,-145 -324,-323 0,-179 145,-324 324,-324 179,0 324,145 324,324z"/>
   <path class="fil1" d="M1848 1523c5,37 11,77 21,118l0 0 0 0c6,23 22,40 37,56l2 2c25,27 48,52 48,101 0,18 -15,33 -33,33l-1 0 -205 0c-3,25 -14,47 -31,64 -19,19 -46,31 -76,31 -29,0 -56,-12 -75,-31 -17,-17 -28,-39 -31,-64l-206 0c-18,0 -33,-15 -33,-33l0 -1c0,-57 28,-81 57,-106 17,-14 33,-28 39,-52 10,-41 16,-81 22,-118l2 -12c3,-22 6,-42 10,-61 14,-69 41,-132 103,-172 15,-10 31,-18 49,-23l-3 -3c-2,-2 -4,-4 -5,-6l-1 0 0 0 0 0c-18,-18 -30,-44 -30,-72 0,-28 12,-54 30,-72l0 0c19,-19 44,-30 72,-30 29,0 54,11 73,30 18,18 29,44 29,72 0,28 -11,54 -29,72l-1 0 0 0c-1,2 -3,4 -5,6l0 0c19,6 38,15 56,26 86,55 100,152 114,245l1 0zm-238 -304c13,0 24,-5 32,-13l0 0c9,-8 14,-19 14,-32 0,-12 -5,-24 -14,-32 0,-1 -1,-2 -2,-2 -9,-6 -19,-9 -30,-9 -11,0 -21,3 -29,9 -1,0 -2,1 -3,2l0 0c-8,8 -13,19 -13,32 0,13 5,24 13,32l0 0c8,8 20,13 32,13zm173 314c-11,-72 -18,-157 -86,-200 -24,-16 -53,-24 -82,-24 -28,0 -57,8 -82,24 -46,30 -64,78 -74,130 -4,18 -7,37 -10,57l-2 13c-6,39 -12,80 -23,123 -10,44 -35,66 -59,86 -9,8 -18,16 -25,25l540 0c-5,-8 -13,-16 -20,-23l-1 -2c-22,-22 -44,-46 -53,-86l0 0c-10,-43 -17,-85 -23,-123l0 0zm-133 300l-80 0c2,6 6,13 11,18 7,7 18,12 29,12 12,0 22,-5 30,-12 5,-5 8,-12 10,-18z"/>
  </g>
 </g>
</svg>
