<?xml version="1.0" encoding="UTF-8"?>
<!DOCTYPE svg PUBLIC "-//W3C//DTD SVG 1.1//EN" "http://www.w3.org/Graphics/SVG/1.1/DTD/svg11.dtd">
<!-- Creator: CorelDRAW X7 -->
<svg xmlns="http://www.w3.org/2000/svg" xml:space="preserve" width="36.336mm" height="36.336mm" version="1.1" style="shape-rendering:geometricPrecision; text-rendering:geometricPrecision; image-rendering:optimizeQuality; fill-rule:evenodd; clip-rule:evenodd"
viewBox="0 0 3634 3634"
 xmlns:xlink="http://www.w3.org/1999/xlink">
 <defs>
  <style type="text/css">
   <![CDATA[
    .fil1 {fill:#5B5B5B}
    .fil0 {fill:#F39314}
    .fil2 {fill:#5B5B5B;fill-rule:nonzero}
   ]]>
  </style>
 </defs>
 <g id="Слой_x0020_1">
  <metadata id="CorelCorpID_0Corel-Layer"/>
  <path class="fil0" d="M2180 1669c0,179 -145,324 -324,324 -179,0 -324,-145 -324,-324 0,-179 145,-323 324,-323 179,0 324,144 324,323z"/>
  <path class="fil1" d="M1872 2197c31,-41 56,-87 73,-137 3,12 7,22 11,33 5,-2 10,-4 15,-6 37,-14 77,-22 118,-24l0 0 0 -154 -117 0c0,-3 0,-7 0,-10 0,-9 0,-18 -1,-27l118 0 0 -153c-41,-2 -81,-10 -118,-24 -5,-2 -10,-4 -15,-6 -5,13 -9,27 -13,41 -7,-18 -14,-35 -22,-52l2 -5 -7 -4c-14,-26 -30,-51 -48,-75 66,-53 150,-85 242,-85 213,0 385,172 385,385 0,212 -172,385 -385,385 -90,0 -172,-31 -238,-82zm217 33l0 -130c-37,2 -72,9 -105,21 -4,2 -9,4 -14,6 3,6 6,11 9,17 20,37 45,65 72,82 12,2 25,3 38,4l0 0zm258 -579c-3,-3 -5,-6 -8,-8 -15,11 -31,21 -47,30 21,57 35,126 37,199l117 0c-5,-86 -42,-164 -99,-221l0 0zm-38 -33c-21,-16 -44,-29 -69,-39 10,12 19,26 27,41 4,6 7,12 10,19 11,-7 22,-13 32,-21zm-146 -62c-12,-2 -25,-3 -37,-4l0 130c36,-2 71,-9 104,-22 4,-1 9,-3 14,-5 -3,-6 -6,-12 -9,-17 -20,-37 -45,-65 -72,-82zm-74 -4c-13,1 -26,2 -38,4 -27,17 -52,45 -72,82 -3,5 -6,11 -9,17 5,2 10,4 14,5 33,13 68,20 105,22l0 -130zm-115 27c-25,10 -48,23 -69,39 10,8 21,14 32,21 3,-7 6,-13 10,-19 8,-15 17,-29 27,-41zm-69 584c21,16 44,30 69,40 -10,-12 -19,-26 -27,-41 -3,-6 -7,-13 -10,-19 -11,6 -22,13 -32,20l0 0zm221 67c12,-1 25,-2 37,-4 27,-17 52,-45 72,-82 3,-6 6,-11 9,-17 -5,-2 -10,-4 -14,-6 -33,-12 -68,-19 -104,-21l0 130zm114 -27c25,-10 48,-24 69,-40 -10,-7 -21,-14 -32,-20 -3,6 -6,13 -10,19 -8,15 -17,29 -27,41l0 0zm99 -64l8 -8c57,-58 94,-135 99,-222l-117 0c-2,74 -16,143 -37,200 16,9 32,19 47,30l0 0zm-81 -450c-5,2 -10,4 -15,6 -37,14 -77,22 -117,24l0 153 166 0c-2,-68 -14,-131 -34,-183zm-132 374c40,2 80,10 117,24 5,2 10,4 15,6 20,-53 32,-116 34,-184l-166 0 0 154z"/>
  <path class="fil2" d="M1525 2240c93,0 178,-38 239,-99 61,-62 99,-146 99,-239 0,-94 -38,-178 -99,-239 -61,-62 -146,-99 -239,-99 -93,0 -178,37 -239,99 -61,61 -99,145 -99,239 0,93 38,177 99,239 61,61 146,99 239,99zm272 -66c-69,70 -166,113 -272,113 -106,0 -203,-43 -272,-113 -70,-70 -113,-166 -113,-272 0,-107 43,-203 113,-273 69,-69 166,-113 272,-113 106,0 203,43 272,113 70,70 113,166 113,273 0,106 -43,202 -113,272z"/>
  <path class="fil2" d="M1525 2192c80,0 153,-32 206,-85 52,-52 85,-125 85,-205 0,-81 -33,-153 -85,-206 -53,-53 -126,-85 -206,-85 -80,0 -153,32 -206,85 -52,53 -85,125 -85,206 0,80 33,153 85,205 53,53 126,85 206,85zm222 -68c-57,57 -135,92 -222,92 -87,0 -165,-35 -222,-92 -57,-57 -92,-136 -92,-222 0,-87 35,-166 92,-223 57,-57 135,-92 222,-92 87,0 166,35 222,92 57,57 92,136 92,223 0,86 -35,165 -92,222z"/>
  <path class="fil2" d="M1495 2070c-1,-9 -2,-36 -2,-64l162 0 0 -34 -162 0c0,-7 0,-15 0,-21 6,1 12,1 27,1 60,0 134,-27 134,-115 0,-62 -39,-102 -121,-102 -32,0 -71,3 -93,6 4,27 4,73 4,139l0 24c0,23 0,46 0,68l-24 0 0 34 24 0c-1,27 -2,50 -4,64l55 0zm111 -228c0,33 -17,57 -32,68 -13,8 -36,10 -52,10 -14,0 -23,-1 -29,-4l0 -147c4,-1 20,-2 37,-2 48,0 76,28 76,75z"/>
 </g>
</svg>
