<svg id="Var1" xmlns="http://www.w3.org/2000/svg" viewBox="0 0 256.75 256.69"><defs><style>.cls-1{fill:none;stroke:#ff6100;stroke-miterlimit:10;stroke-width:3px;}.cls-2{fill:#ff6100;}</style></defs><rect class="cls-1" x="1.5" y="1.5" width="253.75" height="253.69" rx="25"/><g id="ok"><path class="cls-2" d="M-1123.44,685.67A42.5,42.5,0,0,0-1081,643.22a42.52,42.52,0,0,0-42.47-42.47,42.51,42.51,0,0,0-42.46,42.47A42.5,42.5,0,0,0-1123.44,685.67Zm0-60a17.59,17.59,0,0,1,17.58,17.58,17.6,17.6,0,0,1-17.58,17.58A17.6,17.6,0,0,1-1141,643.22,17.6,17.6,0,0,1-1123.44,625.64Z" transform="translate(1251.31 -553.17)"/><path class="cls-2" d="M-1106.26,720.31a79.6,79.6,0,0,0,24.66-10.21,12.45,12.45,0,0,0,3.9-17.16,12.44,12.44,0,0,0-17.16-3.91,53.9,53.9,0,0,1-57.17,0,12.43,12.43,0,0,0-17.15,3.91,12.45,12.45,0,0,0,3.9,17.16,79.5,79.5,0,0,0,24.66,10.21l-23.74,23.74a12.45,12.45,0,0,0,0,17.6,12.43,12.43,0,0,0,8.79,3.64,12.46,12.46,0,0,0,8.81-3.64l23.32-23.33,23.33,23.33a12.45,12.45,0,0,0,17.59,0,12.43,12.43,0,0,0,0-17.6Z" transform="translate(1251.31 -553.17)"/></g></svg>