<svg id="Слой_1" data-name="Слой 1" xmlns="http://www.w3.org/2000/svg" xmlns:xlink="http://www.w3.org/1999/xlink" viewBox="0 0 21.07 34.22">
  <defs>
    <style>
      .cls-1 {
        fill: none;
      }

      .cls-2 {
        clip-path: url(#clip-path);
      }

      .cls-3 {
        fill: #fff;
      }
    </style>
    <clipPath id="clip-path" transform="translate(0 0)">
      <rect class="cls-1" width="21.07" height="34.22"/>
    </clipPath>
  </defs>
  <g class="cls-2">
    <path class="cls-3" d="M14.49,1.44l-3.1,4.14a1.08,1.08,0,0,1-1.72,0L6.58,1.44A.9.9,0,0,1,7.3,0h6.47a.9.9,0,0,1,.72,1.44" transform="translate(0 0)"/>
    <path class="cls-3" d="M14.49,10.66l-3.1,4.13a1.07,1.07,0,0,1-1.72,0L6.58,10.66A.9.9,0,0,1,7.3,9.22h6.47a.9.9,0,0,1,.72,1.44" transform="translate(0 0)"/>
    <path class="cls-3" d="M20.61,22.58,12.72,33.12a2.74,2.74,0,0,1-4.38,0L.46,22.58A2.29,2.29,0,0,1,2.3,18.92H18.77a2.29,2.29,0,0,1,1.84,3.66" transform="translate(0 0)"/>
  </g>
</svg>
