<svg id="Layer_1" data-name="Layer 1" xmlns="http://www.w3.org/2000/svg" viewBox="0 0 53.36 46.4"><defs><style>.cls-1{fill:#fff;stroke:#fff;stroke-miterlimit:10;stroke-width:2px;}</style></defs><path class="cls-1" d="M-262.7,207.25l-21.91-21.91a4.22,4.22,0,0,0-3-1.25,4.24,4.24,0,0,0-3,1.25l-21.91,21.91a2.52,2.52,0,0,0-.55,2.77,2.54,2.54,0,0,0,2.35,1.57h3.9a.55.55,0,0,1,.55.55v12.07a4.28,4.28,0,0,0,4.27,4.28h28.82a4.28,4.28,0,0,0,4.28-4.28V212.14a.55.55,0,0,1,.54-.55h3.9a2.53,2.53,0,0,0,2.35-1.57A2.52,2.52,0,0,0-262.7,207.25ZM-291,226.49v-10.8h6.76v10.8Zm27-17.24a.54.54,0,0,1-.51.34h-3.9a2.55,2.55,0,0,0-2.54,2.55v12.07a2.28,2.28,0,0,1-2.28,2.28h-9v-11.8a1,1,0,0,0-1-1H-292a1,1,0,0,0-1,1v11.8h-9a2.28,2.28,0,0,1-2.27-2.28V212.14a2.55,2.55,0,0,0-2.55-2.55h-3.9a.51.51,0,0,1-.5-.34.51.51,0,0,1,.11-.59l21.91-21.91a2.25,2.25,0,0,1,1.61-.66,2.25,2.25,0,0,1,1.61.66l21.91,21.91A.53.53,0,0,1-264,209.25Z" transform="translate(314.31 -183.09)"/></svg>