<svg id="Слой_1" data-name="Слой 1" xmlns="http://www.w3.org/2000/svg" viewBox="0 0 146.88 196.12"><defs><style>.cls-1{fill:#fff;fill-rule:evenodd;}</style></defs><path class="cls-1" d="M59.19,291.78h75.23c19.72,0,35.8,16.33,35.8,36.37v25.53a9.39,9.39,0,0,1-9.29,9.43h0a9.39,9.39,0,0,1-9.29-9.43c0-8.63-.13-16.93-.13-25.53a17.28,17.28,0,0,0-17.09-17.36H59.19a17.27,17.27,0,0,0-17.08,17.36v18a1.09,1.09,0,0,0,.9,1.07h84.25a9.39,9.39,0,0,1,9.29,9.43h0a9.39,9.39,0,0,1-9.29,9.43H23.4a.06.06,0,0,1-.06-.05c0-12.68.06-25.16.06-37.84,0-20,16.07-36.37,35.79-36.37ZM97.47,169.92a52.13,52.13,0,1,1-52.13,52.13,52.13,52.13,0,0,1,52.13-52.13Zm0,18.56A33.57,33.57,0,1,0,131,222.05,33.57,33.57,0,0,0,97.47,188.48Z" transform="translate(-23.34 -169.92)"/></svg>