<svg id="Layer_6" data-name="Layer 6" xmlns="http://www.w3.org/2000/svg" viewBox="0 0 59.23 89.81"><defs><style>.cls-1{fill:#fff;stroke:#fff;stroke-miterlimit:10;stroke-width:3px;}</style></defs><path class="cls-1" d="M-26.78,1170.1H-70.27a2,2,0,0,1-2-2,2,2,0,0,1,2-2h35.12l-20.18-10.08a2,2,0,0,1-.88-2.64,2,2,0,0,1,2.64-.89l27.67,13.81a2,2,0,0,1,1,2.22A2,2,0,0,1-26.78,1170.1Z" transform="translate(82.54 -1131.11)"/><path class="cls-1" d="M-39.9,1155.3a2,2,0,0,1-1.75-1,2,2,0,0,1,.83-2.67l6-3.18H-72.25a2,2,0,0,1-2-2,2,2,0,0,1,2-2h45.47a2,2,0,0,1,1.91,1.5,2,2,0,0,1-1,2.22L-39,1155.08A2,2,0,0,1-39.9,1155.3Z" transform="translate(82.54 -1131.11)"/><path class="cls-1" d="M-71.67,1203.64a2,2,0,0,1-2-2v-67.08a2,2,0,0,1,2-2,2,2,0,0,1,2,2v67.08A2,2,0,0,1-71.67,1203.64Z" transform="translate(82.54 -1131.11)"/><path class="cls-1" d="M-67.23,1219.43H-79.07a2,2,0,0,1-2-2v-15.78a2,2,0,0,1,2-2h11.84a2,2,0,0,1,2,2v15.78A2,2,0,0,1-67.23,1219.43Zm-9.87-4h7.89v-11.84H-77.1Z" transform="translate(82.54 -1131.11)"/></svg>