<svg id="Capa_1" data-name="Capa 1" xmlns="http://www.w3.org/2000/svg" viewBox="0 0 432 512">
  <defs>
    <style>
      .cls-1 {
        fill: #ff6100;
      }
    </style>
  </defs>
  <path class="cls-1" d="M472,452a20.06,20.06,0,0,1-20,20H432v20a20,20,0,0,1-40,0V472H372a20,20,0,0,1,0-40h20V412a20,20,0,0,1,40,0v20h20A20.06,20.06,0,0,1,472,452Zm0-312V332a20,20,0,0,1-40,0V160H392v60a20,20,0,0,1-40,0V160H160v60a20,20,0,0,1-40,0V160H80V472H292a20,20,0,0,1,0,40H60a20.06,20.06,0,0,1-20-20V140a20.06,20.06,0,0,1,20-20h60.9C128.9,52.5,186.4,0,256,0S383.1,52.5,391.1,120H452A20.06,20.06,0,0,1,472,140ZM350.7,120a96.05,96.05,0,0,0-189.4,0Z" transform="translate(-40)"/>
</svg>
