<svg id="Слой_1" data-name="Слой 1" xmlns="http://www.w3.org/2000/svg" viewBox="0 0 146.89 196.11"><defs><style>.cls-1{fill:#fff;fill-rule:evenodd;}</style></defs><path class="cls-1" d="M326.19,298h75.23c19.72,0,35.79,16.33,35.79,36.36v25.53a9.39,9.39,0,0,1-9.29,9.43h0a9.39,9.39,0,0,1-9.29-9.43c0-8.62-.13-16.92-.13-25.53A17.28,17.28,0,0,0,401.41,317H326.18a17.28,17.28,0,0,0-17.09,17.36v18a1.08,1.08,0,0,0,.9,1.07h84.25a9.39,9.39,0,0,1,9.29,9.43h0a9.39,9.39,0,0,1-9.29,9.43H290.38a.06.06,0,0,1-.06-.06c0-12.67.06-25.15.06-37.84,0-20,16.09-36.35,35.81-36.35Zm38.28-121.86a52.13,52.13,0,1,1-52.13,52.13,52.13,52.13,0,0,1,52.13-52.13Zm0,18.56A33.56,33.56,0,1,0,398,228.23,33.56,33.56,0,0,0,364.47,194.67Z" transform="translate(-290.32 -176.11)"/></svg>