<svg id="Var1" xmlns="http://www.w3.org/2000/svg" viewBox="0 0 256.75 256.75"><defs><style>.cls-1{fill:none;stroke:#ff6100;stroke-miterlimit:10;stroke-width:3px;}.cls-2{fill:#ff6100;}</style></defs><rect class="cls-1" x="1.5" y="1.5" width="253.75" height="253.75" rx="25"/><g id="instagram"><path class="cls-2" d="M-769.06,1356.63c19.88,0,22.24.08,30.09.44,7.26.33,11.21,1.54,13.83,2.56a23,23,0,0,1,8.56,5.57,23.19,23.19,0,0,1,5.58,8.57c1,2.62,2.23,6.57,2.56,13.83.36,7.85.43,10.2.43,30.09s-.07,22.24-.43,30.09c-.33,7.27-1.54,11.21-2.56,13.83a23.19,23.19,0,0,1-5.58,8.57,23,23,0,0,1-8.56,5.57c-2.62,1-6.57,2.23-13.83,2.56-7.85.36-10.21.44-30.09.44s-22.24-.08-30.1-.44c-7.26-.33-11.2-1.54-13.83-2.56a23.21,23.21,0,0,1-8.56-5.57,23.16,23.16,0,0,1-5.57-8.57c-1-2.62-2.23-6.56-2.56-13.83-.36-7.85-.44-10.2-.44-30.09s.08-22.24.44-30.09c.33-7.26,1.54-11.21,2.56-13.83a23.16,23.16,0,0,1,5.57-8.57,23.21,23.21,0,0,1,8.56-5.57c2.63-1,6.57-2.23,13.83-2.56,7.86-.36,10.21-.44,30.1-.44m0-13.41c-20.23,0-22.76.08-30.71.44s-13.34,1.62-18.08,3.47a36.52,36.52,0,0,0-13.19,8.59,36.57,36.57,0,0,0-8.59,13.19,54.6,54.6,0,0,0-3.46,18.07c-.36,8-.45,10.48-.45,30.71s.09,22.76.45,30.71a54.6,54.6,0,0,0,3.46,18.07,36.69,36.69,0,0,0,8.59,13.2,36.65,36.65,0,0,0,13.19,8.59,54.72,54.72,0,0,0,18.08,3.46c7.95.36,10.48.45,30.71.45s22.76-.09,30.7-.45a54.66,54.66,0,0,0,18.08-3.46,36.57,36.57,0,0,0,13.19-8.59,36.56,36.56,0,0,0,8.59-13.2A54.6,54.6,0,0,0-695,1448.4c.37-8,.45-10.48.45-30.71s-.08-22.76-.45-30.71a54.6,54.6,0,0,0-3.46-18.07,36.44,36.44,0,0,0-8.59-13.19,36.44,36.44,0,0,0-13.19-8.59c-4.74-1.85-10.15-3.1-18.08-3.47s-10.48-.44-30.7-.44Z" transform="translate(897.44 -1289.32)"/><path class="cls-2" d="M-769.06,1379.45a38.25,38.25,0,0,0-38.25,38.24,38.25,38.25,0,0,0,38.25,38.24,38.24,38.24,0,0,0,38.24-38.24A38.24,38.24,0,0,0-769.06,1379.45Zm0,63.07a24.83,24.83,0,0,1-24.83-24.83,24.83,24.83,0,0,1,24.83-24.82,24.82,24.82,0,0,1,24.82,24.82A24.83,24.83,0,0,1-769.06,1442.52Z" transform="translate(897.44 -1289.32)"/><circle class="cls-2" cx="168.13" cy="88.62" r="8.94"/></g></svg>