<svg id="Слой_1" data-name="Слой 1" xmlns="http://www.w3.org/2000/svg" viewBox="0 0 385.2 524.43"><defs><style>.cls-1{fill:#FFF;stroke:#FFF;stroke-miterlimit:10;stroke-width:10px;}</style></defs><path class="cls-1" d="M255.6,0C152.2,0,68,84.2,68,187.6c0,47.5,29.9,114.7,89,199.6a1334.69,1334.69,0,0,0,87.4,112.1l11.2,12.6,11.2-12.6a1354.51,1354.51,0,0,0,87.4-112.1c59.1-84.9,89-152.1,89-199.6C443.3,84.2,359.1,0,255.6,0Zm74.3,369.9c-29.2,42-58.7,78.1-74.2,96.6-15.5-18.4-44.9-54.4-74.1-96.3-54.7-78.7-83.7-141.8-83.7-182.5,0-87,70.8-157.7,157.7-157.7s157.7,70.8,157.7,157.7C413.4,228.3,384.5,291.3,329.9,369.9Z" transform="translate(-63 5)"/><path class="cls-1" d="M255.6,69.4A110.81,110.81,0,0,0,144.9,180.1c0,61,49.7,110.8,110.7,110.8a110.75,110.75,0,1,0,0-221.5Zm0,191.5a80.8,80.8,0,1,1,80.8-80.8A80.9,80.9,0,0,1,255.6,260.9Z" transform="translate(-63 5)"/></svg>