<svg id="Слой_1" data-name="Слой 1" xmlns="http://www.w3.org/2000/svg" viewBox="0 0 177.97 37.01"><defs><style>.cls-1{fill:#ff6100;fill-rule:evenodd;}</style></defs><path class="cls-1" d="M375.18,313.63h9.68v11.8h1.24v5.49h-2.38v-3.09h-8.8v3.09h-2.37v-5.49h1.19a13.12,13.12,0,0,0,1.16-4.22,55.84,55.84,0,0,0,.28-6.08v-1.5Zm2.7,2.4q0,6.45-1.18,9.4H382V316Z" transform="translate(-333.8 -301.4)"/><path class="cls-1" d="M387.42,320.82a9.11,9.11,0,0,1,.64-3.65,6.69,6.69,0,0,1,1.31-1.95,5.51,5.51,0,0,1,1.81-1.28,7.69,7.69,0,0,1,3-.56,6.57,6.57,0,0,1,5,1.95,8.8,8.8,0,0,1,0,10.81,6.48,6.48,0,0,1-4.94,1.94,6.59,6.59,0,0,1-5-1.93,7.41,7.41,0,0,1-1.84-5.33Zm2.92-.1a5.39,5.39,0,0,0,1.1,3.66,3.76,3.76,0,0,0,5.59,0,5.46,5.46,0,0,0,1.09-3.71,5.35,5.35,0,0,0-1.06-3.64,3.56,3.56,0,0,0-2.82-1.21,3.6,3.6,0,0,0-2.83,1.22A5.45,5.45,0,0,0,390.34,320.72Z" transform="translate(-333.8 -301.4)"/><path class="cls-1" d="M403.31,313.63H413.8V316h-7.65v3.29h3.79a7.46,7.46,0,0,1,2.6.39,3.75,3.75,0,0,1,1.76,1.43,4.49,4.49,0,0,1,0,4.91,3.92,3.92,0,0,1-1.68,1.4,7.57,7.57,0,0,1-2.69.38h-6.62v-14.2Zm2.84,11.8h2.76a9.39,9.39,0,0,0,1.85-.13,1.8,1.8,0,0,0,.94-.59,1.67,1.67,0,0,0,.39-1.13,1.57,1.57,0,0,0-.69-1.42,4.69,4.69,0,0,0-2.37-.44h-2.88Z" transform="translate(-333.8 -301.4)"/><path class="cls-1" d="M417.34,327.83v-14.2h4.55a15.46,15.46,0,0,1,3.36.22,3.6,3.6,0,0,1,2,1.39,4.38,4.38,0,0,1,.82,2.76,4.74,4.74,0,0,1-.47,2.2,3.91,3.91,0,0,1-1.19,1.4,4,4,0,0,1-1.47.67,15.53,15.53,0,0,1-2.93.2h-1.84v5.36Zm2.85-11.8v4.05h1.54a7,7,0,0,0,2.23-.23,1.88,1.88,0,0,0,.89-.7,2,2,0,0,0,.32-1.11,1.87,1.87,0,0,0-.45-1.28,2,2,0,0,0-1.14-.63,13.85,13.85,0,0,0-2-.1Z" transform="translate(-333.8 -301.4)"/><path class="cls-1" d="M430.5,313.63h2.84v5.67h3.79a7,7,0,0,1,2.56.42,3.74,3.74,0,0,1,1.8,1.47,4.28,4.28,0,0,1,.71,2.43,4.21,4.21,0,0,1-.74,2.49,3.75,3.75,0,0,1-1.67,1.38,8.19,8.19,0,0,1-2.67.34H430.5v-14.2Zm2.84,11.8h2.76a9.39,9.39,0,0,0,1.85-.13,2,2,0,0,0,.93-.59,1.65,1.65,0,0,0,.4-1.13,1.62,1.62,0,0,0-.66-1.41,4.46,4.46,0,0,0-2.4-.47h-2.88v3.73Zm10.49-11.8h2.84v14.2h-2.84Z" transform="translate(-333.8 -301.4)"/><path class="cls-1" d="M449.65,313.63h2.65v9.45l5.68-9.45h2.83v14.2h-2.65v-9.3l-5.69,9.3h-2.82v-14.2Zm7.25-4.1h1.32a3.08,3.08,0,0,1-.92,2.07,2.89,2.89,0,0,1-2.07.75,2.93,2.93,0,0,1-2.07-.75,3.07,3.07,0,0,1-.91-2.07h1.31a1.5,1.5,0,0,0,.48,1,1.8,1.8,0,0,0,1.19.35,1.85,1.85,0,0,0,1.2-.35A1.5,1.5,0,0,0,456.9,309.53Z" transform="translate(-333.8 -301.4)"/><path class="cls-1" d="M478,313.63v6.05a1.42,1.42,0,0,0,1.07-.53,10,10,0,0,0,1-2.18,6.1,6.1,0,0,1,1.73-2.82,5.27,5.27,0,0,1,2.9-.6h.41v2.12h-.41a2.88,2.88,0,0,0-1.27.21,1.68,1.68,0,0,0-.65.67,16.35,16.35,0,0,0-.74,1.83,6.49,6.49,0,0,1-.56,1.23,2.89,2.89,0,0,1-1.07.94,3,3,0,0,1,1.57,1.09,15.09,15.09,0,0,1,1.35,2.32l1.92,3.89h-3.34l-1.69-3.66a2.44,2.44,0,0,0-.16-.3l-.35-.67a4.51,4.51,0,0,0-.87-1.3,1.28,1.28,0,0,0-.85-.28v6.21h-2.76v-6.21a1.32,1.32,0,0,0-.84.27,4.24,4.24,0,0,0-.88,1.31l-.35.67a2.14,2.14,0,0,0-.17.3l-1.68,3.66h-3.34l1.92-3.89a15.18,15.18,0,0,1,1.33-2.29,3,3,0,0,1,1.6-1.12,3,3,0,0,1-1.07-.93,6.93,6.93,0,0,1-.57-1.24,14.08,14.08,0,0,0-.73-1.81,1.53,1.53,0,0,0-.65-.68,2.9,2.9,0,0,0-1.33-.22h-.36v-2.12h.41a5.24,5.24,0,0,1,2.93.61,6.26,6.26,0,0,1,1.7,2.81,10.2,10.2,0,0,0,1,2.18,1.39,1.39,0,0,0,1.07.53v-6.05Z" transform="translate(-333.8 -301.4)"/><path class="cls-1" d="M499.51,327.83h-3.06l-1.21-3.23h-5.63l-1.17,3.23h-3l5.45-14.2h3l5.62,14.2Zm-5.19-5.63-1.95-5.26-1.9,5.26Z" transform="translate(-333.8 -301.4)"/><path class="cls-1" d="M501,327.83v-14.2h4.54a15.64,15.64,0,0,1,3.37.22,3.67,3.67,0,0,1,2,1.39,4.44,4.44,0,0,1,.81,2.76,4.74,4.74,0,0,1-.47,2.2,3.91,3.91,0,0,1-1.19,1.4,4.07,4.07,0,0,1-1.46.67,15.72,15.72,0,0,1-2.94.2h-1.84v5.36Zm2.84-11.8v4.05h1.54a7.13,7.13,0,0,0,2.24-.23,1.85,1.85,0,0,0,.88-.7,2,2,0,0,0,.32-1.11,1.87,1.87,0,0,0-.45-1.28,2,2,0,0,0-1.14-.63,13.75,13.75,0,0,0-2-.1Z" transform="translate(-333.8 -301.4)"/><path class="cls-1" d="M349.5,307.25c.11.08.19.13.2.11a1.65,1.65,0,0,1,.78-.31,5.68,5.68,0,0,0,0-1.64c0-.08-.43.41-.51.4a3.93,3.93,0,0,1-.5-.53v2Zm0,28.61v-.31c0-.23.08-.59.11-1.09a4.26,4.26,0,0,0-.11-1V322c.09-.12.09-.22,0-.29v-6.42a7.58,7.58,0,0,0,.63,1.2c.19,0,.35-.43.75-1,.58-.86-.71-2.6-1.38-4.36v-3.21a2.74,2.74,0,0,1,.52-.39c.63-.39,1-.17,1.44-.12a6.53,6.53,0,0,0,1.39-.13,5.1,5.1,0,0,1-1.32.94c-3.14,1.5,2.17,5,2,7.18-.05.59.11.78.31.68.94-.44,1.71-3.28,4.43-4.14,4.25-1.35,5.3-6,5.31-6,.84,2.21,0,4.1-1.49,6-.4.53-.19.81.29.51.84-.53,1.35-2.57,1.35-1,0,3.12-3.46,3.85-2.6,4.07a1.28,1.28,0,0,0,1.09-.26c.55-.33.27.28.2.57-.35,1.29-2.14,2.44-3.41,2.71-1,.21-.79.45-.07.47s1.31-.2,1.22.06c-.43,1.2-3.71,1.84-4.86,2.05-3.14.58-2.9,5.24-.22,6.4.84.36-.69.58-1.19.52s-1.31-.37-1.36-.15a6.47,6.47,0,0,1,.37,3.73c-.17.64-1.27-2.87-.89-.77.42,2.28.81,4.11-2,7.6a7.59,7.59,0,0,0,.54-3.16c-.08-1.32-.27.09-.91.57C349.55,335.86,349.52,335.87,349.5,335.86Zm-1.05-29.66a5.52,5.52,0,0,0,1.05,1.05v-2c-.14-.16-.26-.28-.29-.27a6.43,6.43,0,0,0,.07,1.09c0,.06-.34.09-.83.1Zm1.05,1.69v3.21a3.89,3.89,0,0,1-.28-2.39l-1.22-.6a2.63,2.63,0,0,0,1.14.07c.15-.05.21-.14.36-.29Zm0,7.39v6.42a.83.83,0,0,0-.38-.13c-.45-.05-1,.14-3.73.3s-4.38-1.93-3.73-1.9c.32,0,2.83,0,2.14-.13-5-1-6.75-5.42-6.16-4.95a3.76,3.76,0,0,0,3.09.55c.19-.07.19-.32-.16-.35A6.56,6.56,0,0,1,334,308.8a8.61,8.61,0,0,0,1.08,1.41c.62.69,1.59.72,1.47.63-3.56-2.77-2.88-10.93-2.42-9.2,1.76,6.55,5.77,8.91,10.64,10.61a12.74,12.74,0,0,1,4.13,2.28,2.72,2.72,0,0,1,.56.75Zm0,6.71-.11.1c-4.28,3.49-2.7,7.35-2.69,7.25.06-1.52,1.07-3.38.84-2.61-.56,1.95,1.46,4.41,2,6.68V322Zm0,13.56v.31S349.47,335.75,349.5,335.55Z" transform="translate(-333.8 -301.4)"/></svg>