<?xml version="1.0" encoding="utf-8"?>
<!-- Generator: Adobe Illustrator 24.1.2, SVG Export Plug-In . SVG Version: 6.00 Build 0)  -->
<svg version="1.1" id="Capa_1" xmlns="http://www.w3.org/2000/svg" xmlns:xlink="http://www.w3.org/1999/xlink" x="0px" y="0px"
	 viewBox="0 0 512 512" style="enable-background:new 0 0 512 512;" xml:space="preserve">
<g>
	<g>
		<path d="M256,0C179.3,0,107.3,34,58.4,93.2C9.6,152.4-10,230.3,4.9,306.9c19.6,101,100.7,181.5,202,200.5
			c16.3,3.1,32.6,4.6,48.7,4.6c49.9,0,98.3-14.3,140.2-41.8c22.8-15,36.5-40.2,36.6-67.4c0.1-26.8-13.2-51.7-35.5-66.7l-13-8.7
			v-18.5c0-8.8-7.2-16-16-16c-27.6,0-54-6-78.2-17.9c-3.8-1.8-8.2-2.1-12.3-0.7c-4,1.4-7.3,4.4-9.2,8.2l-11.5,23.8
			c-34.6-19.8-63.2-48.5-83.1-83.1l23.9-11.5c3.8-1.9,6.8-5.2,8.2-9.2c1.4-4,1.1-8.4-0.7-12.3C193.1,166,187,139.6,187,112
			c0-8.8-7.2-16-16-16H112c-8.8,0-16,7.2-16,16c0,150,122,272,272,272c8.8,0,16-7.2,16-16v-1.2c10.4,9.1,16.5,21.7,16.5,35.9
			c-0.1,16.4-8.4,31.6-22.2,40.7c-48.4,31.8-107.2,43.3-165.5,32.5C124.4,459.4,53.4,389,36.3,300.9c-13-67.2,4-135.5,46.8-187.3
			C125.9,61.8,188.9,32,256,32c123.5,0,224,100.5,224,224c0,8.8,7.2,16,16,16s16-7.2,16-16C512,114.8,397.1,0,256,0z"/>
	</g>
</g>
</svg>
