<svg id="Capa_1" data-name="Capa 1" xmlns="http://www.w3.org/2000/svg" viewBox="0 0 511.94 512"><defs><style>.cls-1{fill:#fff;}</style></defs><path class="cls-1" d="M256,0A255.35,255.35,0,0,0,58.4,93.25C9.57,152.45-9.95,230.34,4.9,306.94c19.55,101,100.73,181.54,202,200.48A262.11,262.11,0,0,0,255.65,512a254.13,254.13,0,0,0,140.16-41.79,80.82,80.82,0,0,0,36.64-67.36A79.61,79.61,0,0,0,397,336.16l-13-8.7V308.93a16,16,0,0,0-16-16A176.68,176.68,0,0,1,289.73,275a16.33,16.33,0,0,0-12.26-.74,16.15,16.15,0,0,0-9.18,8.16L256.77,306.3a225.38,225.38,0,0,1-83.11-83.1l23.88-11.52A16,16,0,0,0,205,190.24,176.11,176.11,0,0,1,187,112a16,16,0,0,0-16-16H112a16,16,0,0,0-16,16c0,150,122,272,272,272a16,16,0,0,0,16-16v-1.18a46.85,46.85,0,0,1,16.51,35.87,48.83,48.83,0,0,1-22.18,40.73C329.86,475.26,271.14,486.75,212.83,476,124.35,459.39,53.41,389,36.32,300.86c-13-67.2,4-135.45,46.78-187.26A223.52,223.52,0,0,1,256,32c123.49,0,224,100.48,224,224a16,16,0,0,0,32,0C512,114.85,397.12,0,256,0Z" transform="translate(-0.03)"/></svg>