<svg id="Capa_1" data-name="Capa 1" xmlns="http://www.w3.org/2000/svg" viewBox="0 0 310.33 310.43"><defs><style>.cls-1{fill:#ffffff;}</style></defs><path class="cls-1" d="M273.6,215A125.94,125.94,0,0,0,95.5,36.9c-41.7,41.7-48,103.6-18.9,152,0,0,2.1,3.5-.7,6.3L11.6,259.5c-12.8,12.8-15.8,30.7-4.5,42l2,2c11.3,11.3,29.2,8.3,42-4.5l64.1-64.1a5.25,5.25,0,0,1,6.4-.9C170,262.9,231.9,256.6,273.6,215ZM118.7,191.7a93.06,93.06,0,1,1,131.6,0A93.13,93.13,0,0,1,118.7,191.7Z" transform="translate(-0.1 -0.07)"/><path class="cls-1" d="M126.8,118.4a13.23,13.23,0,0,1-5.1-1,13,13,0,0,1-6.9-17A81.93,81.93,0,0,1,222.1,56.9,13,13,0,0,1,212,80.8a55.88,55.88,0,0,0-73.2,29.7A13.27,13.27,0,0,1,126.8,118.4Z" transform="translate(-0.1 -0.07)"/></svg>