<svg id="Var1" xmlns="http://www.w3.org/2000/svg" viewBox="0 0 256.75 256.75"><defs><style>.cls-1{fill:none;stroke:#ff6100;stroke-miterlimit:10;stroke-width:3px;}.cls-2{fill:#ff6100;fill-rule:evenodd;}</style></defs><rect class="cls-1" x="1.5" y="1.5" width="253.75" height="253.75" rx="25"/><path id="vk_alt" class="cls-2" d="M-816.77,739.14h11.45s3.45-.38,5.22-2.28,1.58-5,1.58-5-.23-15.36,6.9-17.63,16.06,14.85,25.62,21.42c7.24,5,12.74,3.88,12.74,3.88l25.58-.36s13.38-.82,7-11.34c-.52-.86-3.7-7.79-19-22-16-14.89-13.89-12.48,5.43-38.24,11.77-15.68,16.48-25.26,15-29.36-1.4-3.9-10.06-2.87-10.06-2.87l-28.8.18a6.58,6.58,0,0,0-3.72.65,8,8,0,0,0-2.54,3.09A168.17,168.17,0,0,1-775,661.7c-12.83,21.78-18,22.93-20,21.58-4.88-3.15-3.66-12.66-3.66-19.42,0-21.11,3.2-29.91-6.24-32.19-3.13-.75-5.44-1.25-13.44-1.33-10.28-.11-19,0-23.9,2.44-3.28,1.61-5.81,5.18-4.27,5.39,1.9.25,6.22,1.16,8.5,4.27,2.95,4,2.85,13,2.85,13s1.7,24.84-4,27.93c-3.88,2.12-9.21-2.21-20.64-22a184.09,184.09,0,0,1-10.29-21.31,8.56,8.56,0,0,0-2.37-3.21,12,12,0,0,0-4.43-1.78l-27.37.18s-4.11.11-5.61,1.9c-1.35,1.59-.11,4.88-.11,4.88s21.43,50.13,45.69,75.4c22.25,23.16,47.52,21.64,47.52,21.64Z" transform="translate(943.09 -553.14)"/></svg>