<svg id="Var1" xmlns="http://www.w3.org/2000/svg" viewBox="0 0 256.75 256.75"><defs><style>.cls-1{fill:none;stroke:#fff;stroke-miterlimit:10;stroke-width:3px;}.cls-2,.cls-3{fill:#fff;}.cls-3{fill-rule:evenodd;}</style></defs><rect class="cls-1" x="1.5" y="1.5" width="253.75" height="253.75" rx="25"/><g id="youtube"><path class="cls-2" d="M-1371.7,1444.21q-4.12,0-4.12,6.3v4.21h8.23v-4.21C-1367.59,1446.31-1369,1444.21-1371.7,1444.21Z" transform="translate(1543.47 -1289.32)"/><path class="cls-2" d="M-1351.56,1421.1a17.22,17.22,0,0,0-14.73-13.39c-16.9-1.88-34-1.89-51-1.88s-34.14,0-51,1.88a17.21,17.21,0,0,0-14.73,13.39c-2.38,10.33-2.4,21.59-2.4,32.22s0,21.89,2.37,32.22a17.22,17.22,0,0,0,14.73,13.39c16.9,1.88,34,1.89,51,1.88s34.14,0,51-1.88a17.23,17.23,0,0,0,14.74-13.39c2.37-10.33,2.38-21.59,2.38-32.22S-1349.18,1431.43-1351.56,1421.1Zm-95,9.29h-9.87v52.41h-9.16v-52.41h-9.68v-8.59h28.71Zm24.88,52.41H-1430v-5c-3.27,3.76-6.38,5.59-9.41,5.59-2.65,0-4.48-1.08-5.3-3.38a22.8,22.8,0,0,1-.73-6.76v-35.94h8.23v33.46a24.11,24.11,0,0,0,.08,3.21c.2,1.27.83,1.92,1.93,1.92,1.65,0,3.38-1.27,5.2-3.85v-34.74h8.24Zm31.29-13.64a36.29,36.29,0,0,1-.83,9.16c-1.1,3.38-3.3,5.11-6.58,5.11-2.93,0-5.76-1.63-8.51-5v4.4h-8.24v-61h8.24v19.92c2.66-3.27,5.48-4.92,8.51-4.92,3.28,0,5.48,1.72,6.58,5.13a35,35,0,0,1,.83,9.13Zm31.09-7.58h-16.47v8.06c0,4.2,1.37,6.3,4.2,6.3,2,0,3.21-1.1,3.68-3.3a51.66,51.66,0,0,0,.18-5.58h8.41v1.2c0,2.65-.11,4.48-.18,5.31a11.67,11.67,0,0,1-1.93,4.93,11.37,11.37,0,0,1-10,4.93,11.78,11.78,0,0,1-10-4.66c-1.75-2.27-2.65-5.86-2.65-10.69v-15.91c0-4.86.8-8.42,2.55-10.71a11.69,11.69,0,0,1,9.86-4.66,11.43,11.43,0,0,1,9.72,4.66c1.72,2.29,2.55,5.85,2.55,10.71Z" transform="translate(1543.47 -1289.32)"/><path class="cls-2" d="M-1402.26,1444.21a5.89,5.89,0,0,0-4.1,2v27.7a5.86,5.86,0,0,0,4.1,2c2.38,0,3.59-2,3.59-6.13v-19.4C-1398.67,1446.31-1399.88,1444.21-1402.26,1444.21Z" transform="translate(1543.47 -1289.32)"/><path class="cls-3" d="M-1431.6,1336h-9.33l-6.29,24.19-6.55-24.19h-9.71c1.94,5.71,4,11.45,5.92,17.17a151.2,151.2,0,0,1,5.63,19.49v24.95h9.23v-24.95Zm24.65,46.75v-16.09c0-4.9-.84-8.49-2.58-10.81a11.32,11.32,0,0,0-9.7-4.71,11.33,11.33,0,0,0-9.69,4.71c-1.77,2.32-2.61,5.91-2.61,10.81v16.09c0,4.87.84,8.49,2.61,10.79a11.34,11.34,0,0,0,9.69,4.7,11.34,11.34,0,0,0,9.7-4.7C-1407.79,1391.21-1406.95,1387.59-1406.95,1382.72Zm-8.32,1.56c0,4.25-1.28,6.37-4,6.37s-4-2.12-4-6.37V1365c0-4.24,1.29-6.36,4-6.36s4,2.12,4,6.36Zm39.09,13.3v-45.91h-8.32v35.09c-1.85,2.6-3.59,3.89-5.26,3.89q-1.66,0-2-2a19.4,19.4,0,0,1-.1-3.23v-33.8h-8.29V1388a23.18,23.18,0,0,0,.74,6.83c.83,2.33,2.68,3.41,5.36,3.41,3,0,6.19-1.84,9.5-5.64v5Z" transform="translate(1543.47 -1289.32)"/></g></svg>